<?xml version="1.0" encoding="utf-8" standalone="no"?>
<!DOCTYPE svg PUBLIC "-//W3C//DTD SVG 1.1//EN"
  "http://www.w3.org/Graphics/SVG/1.1/DTD/svg11.dtd">
<svg xmlns:xlink="http://www.w3.org/1999/xlink" width="317.07pt" height="72pt" viewBox="0 0 317.07 72" xmlns="http://www.w3.org/2000/svg" version="1.1">
 <metadata>
  <rdf:RDF xmlns:dc="http://purl.org/dc/elements/1.1/" xmlns:cc="http://creativecommons.org/ns#" xmlns:rdf="http://www.w3.org/1999/02/22-rdf-syntax-ns#">
   <cc:Work>
    <dc:type rdf:resource="http://purl.org/dc/dcmitype/StillImage"/>
    <dc:date>2023-12-18T19:30:52.492591</dc:date>
    <dc:format>image/svg+xml</dc:format>
    <dc:creator>
     <cc:Agent>
      <dc:title>Matplotlib v3.8.2, https://matplotlib.org/</dc:title>
     </cc:Agent>
    </dc:creator>
   </cc:Work>
  </rdf:RDF>
 </metadata>
 <defs>
  <style type="text/css">*{stroke-linejoin: round; stroke-linecap: butt}</style>
 </defs>
 <g id="figure_1">
  <g id="patch_1">
   <path d="M 0 72 
L 317.07 72 
L 317.07 0 
L 0 0 
z
" style="fill: #ffffff"/>
  </g>
  <g id="patch_2">
   <path d="M 7.2 8 
L 107.46 8 
L 107.46 0 
L 7.2 0 
z
" style="fill: #ffffff; stroke: #ffffff; stroke-linejoin: miter"/>
  </g>
  <g id="patch_3">
   <path d="M 107.46 8 
L 142.74 8 
L 142.74 0 
L 107.46 0 
z
" style="fill: #ffffff; stroke: #ffffff; stroke-linejoin: miter"/>
  </g>
  <g id="patch_4">
   <path d="M 142.74 8 
L 186.93 8 
L 186.93 0 
L 142.74 0 
z
" style="fill: #ffffff; stroke: #ffffff; stroke-linejoin: miter"/>
  </g>
  <g id="patch_5">
   <path d="M 186.93 8 
L 220.05 8 
L 220.05 0 
L 186.93 0 
z
" style="fill: #ffffff; stroke: #ffffff; stroke-linejoin: miter"/>
  </g>
  <g id="patch_6">
   <path d="M 220.05 8 
L 247.59 8 
L 247.59 0 
L 220.05 0 
z
" style="fill: #ffffff; stroke: #ffffff; stroke-linejoin: miter"/>
  </g>
  <g id="patch_7">
   <path d="M 247.59 8 
L 278.73 8 
L 278.73 0 
L 247.59 0 
z
" style="fill: #ffffff; stroke: #ffffff; stroke-linejoin: miter"/>
  </g>
  <g id="patch_8">
   <path d="M 278.73 8 
L 309.87 8 
L 309.87 0 
L 278.73 0 
z
" style="fill: #ffffff; stroke: #ffffff; stroke-linejoin: miter"/>
  </g>
  <g id="patch_9">
   <path d="M 7.2 16 
L 309.87 16 
L 309.87 8 
L 7.2 8 
z
" style="fill: #f5f5f5; stroke: #f5f5f5; stroke-linejoin: miter"/>
  </g>
  <g id="patch_10">
   <path d="M 7.2 16 
L 107.46 16 
L 107.46 8 
L 7.2 8 
z
" style="fill: #ffffff; stroke: #ffffff; stroke-linejoin: miter"/>
  </g>
  <g id="patch_11">
   <path d="M 107.46 16 
L 142.74 16 
L 142.74 8 
L 107.46 8 
z
" style="fill: #ffffff; stroke: #ffffff; stroke-linejoin: miter"/>
  </g>
  <g id="patch_12">
   <path d="M 142.74 16 
L 186.93 16 
L 186.93 8 
L 142.74 8 
z
" style="fill: #ffffff; stroke: #ffffff; stroke-linejoin: miter"/>
  </g>
  <g id="patch_13">
   <path d="M 186.93 16 
L 220.05 16 
L 220.05 8 
L 186.93 8 
z
" style="fill: #ffffff; stroke: #ffffff; stroke-linejoin: miter"/>
  </g>
  <g id="patch_14">
   <path d="M 220.05 16 
L 247.59 16 
L 247.59 8 
L 220.05 8 
z
" style="fill: #ffffff; stroke: #ffffff; stroke-linejoin: miter"/>
  </g>
  <g id="patch_15">
   <path d="M 247.59 16 
L 278.73 16 
L 278.73 8 
L 247.59 8 
z
" style="fill: #ffffff; stroke: #ffffff; stroke-linejoin: miter"/>
  </g>
  <g id="patch_16">
   <path d="M 278.73 16 
L 309.87 16 
L 309.87 8 
L 278.73 8 
z
" style="fill: #ffffff; stroke: #ffffff; stroke-linejoin: miter"/>
  </g>
  <g id="patch_17">
   <path d="M 7.2 24 
L 107.46 24 
L 107.46 16 
L 7.2 16 
z
" style="fill: #ffffff; stroke: #ffffff; stroke-linejoin: miter"/>
  </g>
  <g id="patch_18">
   <path d="M 107.46 24 
L 142.74 24 
L 142.74 16 
L 107.46 16 
z
" style="fill: #ffffff; stroke: #ffffff; stroke-linejoin: miter"/>
  </g>
  <g id="patch_19">
   <path d="M 142.74 24 
L 186.93 24 
L 186.93 16 
L 142.74 16 
z
" style="fill: #ffffff; stroke: #ffffff; stroke-linejoin: miter"/>
  </g>
  <g id="patch_20">
   <path d="M 186.93 24 
L 220.05 24 
L 220.05 16 
L 186.93 16 
z
" style="fill: #ffffff; stroke: #ffffff; stroke-linejoin: miter"/>
  </g>
  <g id="patch_21">
   <path d="M 220.05 24 
L 247.59 24 
L 247.59 16 
L 220.05 16 
z
" style="fill: #ffffff; stroke: #ffffff; stroke-linejoin: miter"/>
  </g>
  <g id="patch_22">
   <path d="M 247.59 24 
L 278.73 24 
L 278.73 16 
L 247.59 16 
z
" style="fill: #ffffff; stroke: #ffffff; stroke-linejoin: miter"/>
  </g>
  <g id="patch_23">
   <path d="M 278.73 24 
L 309.87 24 
L 309.87 16 
L 278.73 16 
z
" style="fill: #ffffff; stroke: #ffffff; stroke-linejoin: miter"/>
  </g>
  <g id="patch_24">
   <path d="M 7.2 32 
L 309.87 32 
L 309.87 24 
L 7.2 24 
z
" style="fill: #f5f5f5; stroke: #f5f5f5; stroke-linejoin: miter"/>
  </g>
  <g id="patch_25">
   <path d="M 7.2 32 
L 107.46 32 
L 107.46 24 
L 7.2 24 
z
" style="fill: #ffffff; stroke: #ffffff; stroke-linejoin: miter"/>
  </g>
  <g id="patch_26">
   <path d="M 107.46 32 
L 142.74 32 
L 142.74 24 
L 107.46 24 
z
" style="fill: #ffffff; stroke: #ffffff; stroke-linejoin: miter"/>
  </g>
  <g id="patch_27">
   <path d="M 142.74 32 
L 186.93 32 
L 186.93 24 
L 142.74 24 
z
" style="fill: #ffffff; stroke: #ffffff; stroke-linejoin: miter"/>
  </g>
  <g id="patch_28">
   <path d="M 186.93 32 
L 220.05 32 
L 220.05 24 
L 186.93 24 
z
" style="fill: #ffffff; stroke: #ffffff; stroke-linejoin: miter"/>
  </g>
  <g id="patch_29">
   <path d="M 220.05 32 
L 247.59 32 
L 247.59 24 
L 220.05 24 
z
" style="fill: #ffffff; stroke: #ffffff; stroke-linejoin: miter"/>
  </g>
  <g id="patch_30">
   <path d="M 247.59 32 
L 278.73 32 
L 278.73 24 
L 247.59 24 
z
" style="fill: #ffffff; stroke: #ffffff; stroke-linejoin: miter"/>
  </g>
  <g id="patch_31">
   <path d="M 278.73 32 
L 309.87 32 
L 309.87 24 
L 278.73 24 
z
" style="fill: #ffffff; stroke: #ffffff; stroke-linejoin: miter"/>
  </g>
  <g id="patch_32">
   <path d="M 7.2 40 
L 107.46 40 
L 107.46 32 
L 7.2 32 
z
" style="fill: #ffffff; stroke: #ffffff; stroke-linejoin: miter"/>
  </g>
  <g id="patch_33">
   <path d="M 107.46 40 
L 142.74 40 
L 142.74 32 
L 107.46 32 
z
" style="fill: #ffffff; stroke: #ffffff; stroke-linejoin: miter"/>
  </g>
  <g id="patch_34">
   <path d="M 142.74 40 
L 186.93 40 
L 186.93 32 
L 142.74 32 
z
" style="fill: #ffffff; stroke: #ffffff; stroke-linejoin: miter"/>
  </g>
  <g id="patch_35">
   <path d="M 186.93 40 
L 220.05 40 
L 220.05 32 
L 186.93 32 
z
" style="fill: #ffffff; stroke: #ffffff; stroke-linejoin: miter"/>
  </g>
  <g id="patch_36">
   <path d="M 220.05 40 
L 247.59 40 
L 247.59 32 
L 220.05 32 
z
" style="fill: #ffffff; stroke: #ffffff; stroke-linejoin: miter"/>
  </g>
  <g id="patch_37">
   <path d="M 247.59 40 
L 278.73 40 
L 278.73 32 
L 247.59 32 
z
" style="fill: #ffffff; stroke: #ffffff; stroke-linejoin: miter"/>
  </g>
  <g id="patch_38">
   <path d="M 278.73 40 
L 309.87 40 
L 309.87 32 
L 278.73 32 
z
" style="fill: #ffffff; stroke: #ffffff; stroke-linejoin: miter"/>
  </g>
  <g id="patch_39">
   <path d="M 7.2 48 
L 309.87 48 
L 309.87 40 
L 7.2 40 
z
" style="fill: #f5f5f5; stroke: #f5f5f5; stroke-linejoin: miter"/>
  </g>
  <g id="patch_40">
   <path d="M 7.2 48 
L 107.46 48 
L 107.46 40 
L 7.2 40 
z
" style="fill: #ffffff; stroke: #ffffff; stroke-linejoin: miter"/>
  </g>
  <g id="patch_41">
   <path d="M 107.46 48 
L 142.74 48 
L 142.74 40 
L 107.46 40 
z
" style="fill: #ffffff; stroke: #ffffff; stroke-linejoin: miter"/>
  </g>
  <g id="patch_42">
   <path d="M 142.74 48 
L 186.93 48 
L 186.93 40 
L 142.74 40 
z
" style="fill: #ffffff; stroke: #ffffff; stroke-linejoin: miter"/>
  </g>
  <g id="patch_43">
   <path d="M 186.93 48 
L 220.05 48 
L 220.05 40 
L 186.93 40 
z
" style="fill: #ffffff; stroke: #ffffff; stroke-linejoin: miter"/>
  </g>
  <g id="patch_44">
   <path d="M 220.05 48 
L 247.59 48 
L 247.59 40 
L 220.05 40 
z
" style="fill: #ffffff; stroke: #ffffff; stroke-linejoin: miter"/>
  </g>
  <g id="patch_45">
   <path d="M 247.59 48 
L 278.73 48 
L 278.73 40 
L 247.59 40 
z
" style="fill: #ffffff; stroke: #ffffff; stroke-linejoin: miter"/>
  </g>
  <g id="patch_46">
   <path d="M 278.73 48 
L 309.87 48 
L 309.87 40 
L 278.73 40 
z
" style="fill: #ffffff; stroke: #ffffff; stroke-linejoin: miter"/>
  </g>
  <g id="patch_47">
   <path d="M 7.2 56 
L 107.46 56 
L 107.46 48 
L 7.2 48 
z
" style="fill: #ffffff; stroke: #ffffff; stroke-linejoin: miter"/>
  </g>
  <g id="patch_48">
   <path d="M 107.46 56 
L 142.74 56 
L 142.74 48 
L 107.46 48 
z
" style="fill: #ffffff; stroke: #ffffff; stroke-linejoin: miter"/>
  </g>
  <g id="patch_49">
   <path d="M 142.74 56 
L 186.93 56 
L 186.93 48 
L 142.74 48 
z
" style="fill: #ffffff; stroke: #ffffff; stroke-linejoin: miter"/>
  </g>
  <g id="patch_50">
   <path d="M 186.93 56 
L 220.05 56 
L 220.05 48 
L 186.93 48 
z
" style="fill: #ffffff; stroke: #ffffff; stroke-linejoin: miter"/>
  </g>
  <g id="patch_51">
   <path d="M 220.05 56 
L 247.59 56 
L 247.59 48 
L 220.05 48 
z
" style="fill: #ffffff; stroke: #ffffff; stroke-linejoin: miter"/>
  </g>
  <g id="patch_52">
   <path d="M 247.59 56 
L 278.73 56 
L 278.73 48 
L 247.59 48 
z
" style="fill: #ffffff; stroke: #ffffff; stroke-linejoin: miter"/>
  </g>
  <g id="patch_53">
   <path d="M 278.73 56 
L 309.87 56 
L 309.87 48 
L 278.73 48 
z
" style="fill: #ffffff; stroke: #ffffff; stroke-linejoin: miter"/>
  </g>
  <g id="patch_54">
   <path d="M 7.2 64 
L 309.87 64 
L 309.87 56 
L 7.2 56 
z
" style="fill: #f5f5f5; stroke: #f5f5f5; stroke-linejoin: miter"/>
  </g>
  <g id="patch_55">
   <path d="M 7.2 64 
L 107.46 64 
L 107.46 56 
L 7.2 56 
z
" style="fill: #ffffff; stroke: #ffffff; stroke-linejoin: miter"/>
  </g>
  <g id="patch_56">
   <path d="M 107.46 64 
L 142.74 64 
L 142.74 56 
L 107.46 56 
z
" style="fill: #ffffff; stroke: #ffffff; stroke-linejoin: miter"/>
  </g>
  <g id="patch_57">
   <path d="M 142.74 64 
L 186.93 64 
L 186.93 56 
L 142.74 56 
z
" style="fill: #ffffff; stroke: #ffffff; stroke-linejoin: miter"/>
  </g>
  <g id="patch_58">
   <path d="M 186.93 64 
L 220.05 64 
L 220.05 56 
L 186.93 56 
z
" style="fill: #ffffff; stroke: #ffffff; stroke-linejoin: miter"/>
  </g>
  <g id="patch_59">
   <path d="M 220.05 64 
L 247.59 64 
L 247.59 56 
L 220.05 56 
z
" style="fill: #ffffff; stroke: #ffffff; stroke-linejoin: miter"/>
  </g>
  <g id="patch_60">
   <path d="M 247.59 64 
L 278.73 64 
L 278.73 56 
L 247.59 56 
z
" style="fill: #ffffff; stroke: #ffffff; stroke-linejoin: miter"/>
  </g>
  <g id="patch_61">
   <path d="M 278.73 64 
L 309.87 64 
L 309.87 56 
L 278.73 56 
z
" style="fill: #ffffff; stroke: #ffffff; stroke-linejoin: miter"/>
  </g>
  <g id="patch_62">
   <path d="M 7.2 72 
L 107.46 72 
L 107.46 64 
L 7.2 64 
z
" style="fill: #ffffff; stroke: #ffffff; stroke-linejoin: miter"/>
  </g>
  <g id="patch_63">
   <path d="M 107.46 72 
L 142.74 72 
L 142.74 64 
L 107.46 64 
z
" style="fill: #ffffff; stroke: #ffffff; stroke-linejoin: miter"/>
  </g>
  <g id="patch_64">
   <path d="M 142.74 72 
L 186.93 72 
L 186.93 64 
L 142.74 64 
z
" style="fill: #ffffff; stroke: #ffffff; stroke-linejoin: miter"/>
  </g>
  <g id="patch_65">
   <path d="M 186.93 72 
L 220.05 72 
L 220.05 64 
L 186.93 64 
z
" style="fill: #ffffff; stroke: #ffffff; stroke-linejoin: miter"/>
  </g>
  <g id="patch_66">
   <path d="M 220.05 72 
L 247.59 72 
L 247.59 64 
L 220.05 64 
z
" style="fill: #ffffff; stroke: #ffffff; stroke-linejoin: miter"/>
  </g>
  <g id="patch_67">
   <path d="M 247.59 72 
L 278.73 72 
L 278.73 64 
L 247.59 64 
z
" style="fill: #ffffff; stroke: #ffffff; stroke-linejoin: miter"/>
  </g>
  <g id="patch_68">
   <path d="M 278.73 72 
L 309.87 72 
L 309.87 64 
L 278.73 64 
z
" style="fill: #ffffff; stroke: #ffffff; stroke-linejoin: miter"/>
  </g>
  <g id="line2d_1">
   <path d="M 7.2 8 
L 309.87 8 
" style="fill: none; stroke: #000000; stroke-width: 1.5; stroke-linecap: square"/>
  </g>
  <g id="text_1">
   <!-- Coefficient -->
   <g transform="translate(116.836875 5.10375) scale(0.04 -0.04)">
    <defs>
     <path id="DejaVuSans-Bold-43" d="M 4288 256 
Q 3956 84 3597 -3 
Q 3238 -91 2847 -91 
Q 1681 -91 1000 561 
Q 319 1213 319 2328 
Q 319 3447 1000 4098 
Q 1681 4750 2847 4750 
Q 3238 4750 3597 4662 
Q 3956 4575 4288 4403 
L 4288 3438 
Q 3953 3666 3628 3772 
Q 3303 3878 2944 3878 
Q 2300 3878 1931 3465 
Q 1563 3053 1563 2328 
Q 1563 1606 1931 1193 
Q 2300 781 2944 781 
Q 3303 781 3628 887 
Q 3953 994 4288 1222 
L 4288 256 
z
" transform="scale(0.015625)"/>
     <path id="DejaVuSans-Bold-6f" d="M 2203 2784 
Q 1831 2784 1636 2517 
Q 1441 2250 1441 1747 
Q 1441 1244 1636 976 
Q 1831 709 2203 709 
Q 2569 709 2762 976 
Q 2956 1244 2956 1747 
Q 2956 2250 2762 2517 
Q 2569 2784 2203 2784 
z
M 2203 3584 
Q 3106 3584 3614 3096 
Q 4122 2609 4122 1747 
Q 4122 884 3614 396 
Q 3106 -91 2203 -91 
Q 1297 -91 786 396 
Q 275 884 275 1747 
Q 275 2609 786 3096 
Q 1297 3584 2203 3584 
z
" transform="scale(0.015625)"/>
     <path id="DejaVuSans-Bold-65" d="M 4031 1759 
L 4031 1441 
L 1416 1441 
Q 1456 1047 1700 850 
Q 1944 653 2381 653 
Q 2734 653 3104 758 
Q 3475 863 3866 1075 
L 3866 213 
Q 3469 63 3072 -14 
Q 2675 -91 2278 -91 
Q 1328 -91 801 392 
Q 275 875 275 1747 
Q 275 2603 792 3093 
Q 1309 3584 2216 3584 
Q 3041 3584 3536 3087 
Q 4031 2591 4031 1759 
z
M 2881 2131 
Q 2881 2450 2695 2645 
Q 2509 2841 2209 2841 
Q 1884 2841 1681 2658 
Q 1478 2475 1428 2131 
L 2881 2131 
z
" transform="scale(0.015625)"/>
     <path id="DejaVuSans-Bold-66" d="M 2841 4863 
L 2841 4128 
L 2222 4128 
Q 1984 4128 1890 4042 
Q 1797 3956 1797 3744 
L 1797 3500 
L 2753 3500 
L 2753 2700 
L 1797 2700 
L 1797 0 
L 678 0 
L 678 2700 
L 122 2700 
L 122 3500 
L 678 3500 
L 678 3744 
Q 678 4316 997 4589 
Q 1316 4863 1984 4863 
L 2841 4863 
z
" transform="scale(0.015625)"/>
     <path id="DejaVuSans-Bold-69" d="M 538 3500 
L 1656 3500 
L 1656 0 
L 538 0 
L 538 3500 
z
M 538 4863 
L 1656 4863 
L 1656 3950 
L 538 3950 
L 538 4863 
z
" transform="scale(0.015625)"/>
     <path id="DejaVuSans-Bold-63" d="M 3366 3391 
L 3366 2478 
Q 3138 2634 2908 2709 
Q 2678 2784 2431 2784 
Q 1963 2784 1702 2511 
Q 1441 2238 1441 1747 
Q 1441 1256 1702 982 
Q 1963 709 2431 709 
Q 2694 709 2930 787 
Q 3166 866 3366 1019 
L 3366 103 
Q 3103 6 2833 -42 
Q 2563 -91 2291 -91 
Q 1344 -91 809 395 
Q 275 881 275 1747 
Q 275 2613 809 3098 
Q 1344 3584 2291 3584 
Q 2566 3584 2833 3536 
Q 3100 3488 3366 3391 
z
" transform="scale(0.015625)"/>
     <path id="DejaVuSans-Bold-6e" d="M 4056 2131 
L 4056 0 
L 2931 0 
L 2931 347 
L 2931 1631 
Q 2931 2084 2911 2256 
Q 2891 2428 2841 2509 
Q 2775 2619 2662 2680 
Q 2550 2741 2406 2741 
Q 2056 2741 1856 2470 
Q 1656 2200 1656 1722 
L 1656 0 
L 538 0 
L 538 3500 
L 1656 3500 
L 1656 2988 
Q 1909 3294 2193 3439 
Q 2478 3584 2822 3584 
Q 3428 3584 3742 3212 
Q 4056 2841 4056 2131 
z
" transform="scale(0.015625)"/>
     <path id="DejaVuSans-Bold-74" d="M 1759 4494 
L 1759 3500 
L 2913 3500 
L 2913 2700 
L 1759 2700 
L 1759 1216 
Q 1759 972 1856 886 
Q 1953 800 2241 800 
L 2816 800 
L 2816 0 
L 1856 0 
Q 1194 0 917 276 
Q 641 553 641 1216 
L 641 2700 
L 84 2700 
L 84 3500 
L 641 3500 
L 641 4494 
L 1759 4494 
z
" transform="scale(0.015625)"/>
    </defs>
    <use xlink:href="#DejaVuSans-Bold-43"/>
    <use xlink:href="#DejaVuSans-Bold-6f" x="73.388672"/>
    <use xlink:href="#DejaVuSans-Bold-65" x="142.089844"/>
    <use xlink:href="#DejaVuSans-Bold-66" x="209.912109"/>
    <use xlink:href="#DejaVuSans-Bold-66" x="253.417969"/>
    <use xlink:href="#DejaVuSans-Bold-69" x="296.923828"/>
    <use xlink:href="#DejaVuSans-Bold-63" x="331.201172"/>
    <use xlink:href="#DejaVuSans-Bold-69" x="390.478516"/>
    <use xlink:href="#DejaVuSans-Bold-65" x="424.755859"/>
    <use xlink:href="#DejaVuSans-Bold-6e" x="492.578125"/>
    <use xlink:href="#DejaVuSans-Bold-74" x="563.769531"/>
   </g>
  </g>
  <g id="text_2">
   <!-- Standard Error -->
   <g transform="translate(151.961875 5.10375) scale(0.04 -0.04)">
    <defs>
     <path id="DejaVuSans-Bold-53" d="M 3834 4519 
L 3834 3531 
Q 3450 3703 3084 3790 
Q 2719 3878 2394 3878 
Q 1963 3878 1756 3759 
Q 1550 3641 1550 3391 
Q 1550 3203 1689 3098 
Q 1828 2994 2194 2919 
L 2706 2816 
Q 3484 2659 3812 2340 
Q 4141 2022 4141 1434 
Q 4141 663 3683 286 
Q 3225 -91 2284 -91 
Q 1841 -91 1394 -6 
Q 947 78 500 244 
L 500 1259 
Q 947 1022 1364 901 
Q 1781 781 2169 781 
Q 2563 781 2772 912 
Q 2981 1044 2981 1288 
Q 2981 1506 2839 1625 
Q 2697 1744 2272 1838 
L 1806 1941 
Q 1106 2091 782 2419 
Q 459 2747 459 3303 
Q 459 4000 909 4375 
Q 1359 4750 2203 4750 
Q 2588 4750 2994 4692 
Q 3400 4634 3834 4519 
z
" transform="scale(0.015625)"/>
     <path id="DejaVuSans-Bold-61" d="M 2106 1575 
Q 1756 1575 1579 1456 
Q 1403 1338 1403 1106 
Q 1403 894 1545 773 
Q 1688 653 1941 653 
Q 2256 653 2472 879 
Q 2688 1106 2688 1447 
L 2688 1575 
L 2106 1575 
z
M 3816 1997 
L 3816 0 
L 2688 0 
L 2688 519 
Q 2463 200 2181 54 
Q 1900 -91 1497 -91 
Q 953 -91 614 226 
Q 275 544 275 1050 
Q 275 1666 698 1953 
Q 1122 2241 2028 2241 
L 2688 2241 
L 2688 2328 
Q 2688 2594 2478 2717 
Q 2269 2841 1825 2841 
Q 1466 2841 1156 2769 
Q 847 2697 581 2553 
L 581 3406 
Q 941 3494 1303 3539 
Q 1666 3584 2028 3584 
Q 2975 3584 3395 3211 
Q 3816 2838 3816 1997 
z
" transform="scale(0.015625)"/>
     <path id="DejaVuSans-Bold-64" d="M 2919 2988 
L 2919 4863 
L 4044 4863 
L 4044 0 
L 2919 0 
L 2919 506 
Q 2688 197 2409 53 
Q 2131 -91 1766 -91 
Q 1119 -91 703 423 
Q 288 938 288 1747 
Q 288 2556 703 3070 
Q 1119 3584 1766 3584 
Q 2128 3584 2408 3439 
Q 2688 3294 2919 2988 
z
M 2181 722 
Q 2541 722 2730 984 
Q 2919 1247 2919 1747 
Q 2919 2247 2730 2509 
Q 2541 2772 2181 2772 
Q 1825 2772 1636 2509 
Q 1447 2247 1447 1747 
Q 1447 1247 1636 984 
Q 1825 722 2181 722 
z
" transform="scale(0.015625)"/>
     <path id="DejaVuSans-Bold-72" d="M 3138 2547 
Q 2991 2616 2845 2648 
Q 2700 2681 2553 2681 
Q 2122 2681 1889 2404 
Q 1656 2128 1656 1613 
L 1656 0 
L 538 0 
L 538 3500 
L 1656 3500 
L 1656 2925 
Q 1872 3269 2151 3426 
Q 2431 3584 2822 3584 
Q 2878 3584 2943 3579 
Q 3009 3575 3134 3559 
L 3138 2547 
z
" transform="scale(0.015625)"/>
     <path id="DejaVuSans-Bold-20" transform="scale(0.015625)"/>
     <path id="DejaVuSans-Bold-45" d="M 588 4666 
L 3834 4666 
L 3834 3756 
L 1791 3756 
L 1791 2888 
L 3713 2888 
L 3713 1978 
L 1791 1978 
L 1791 909 
L 3903 909 
L 3903 0 
L 588 0 
L 588 4666 
z
" transform="scale(0.015625)"/>
    </defs>
    <use xlink:href="#DejaVuSans-Bold-53"/>
    <use xlink:href="#DejaVuSans-Bold-74" x="72.021484"/>
    <use xlink:href="#DejaVuSans-Bold-61" x="119.824219"/>
    <use xlink:href="#DejaVuSans-Bold-6e" x="187.304688"/>
    <use xlink:href="#DejaVuSans-Bold-64" x="258.496094"/>
    <use xlink:href="#DejaVuSans-Bold-61" x="330.078125"/>
    <use xlink:href="#DejaVuSans-Bold-72" x="397.558594"/>
    <use xlink:href="#DejaVuSans-Bold-64" x="446.875"/>
    <use xlink:href="#DejaVuSans-Bold-20" x="518.457031"/>
    <use xlink:href="#DejaVuSans-Bold-45" x="553.271484"/>
    <use xlink:href="#DejaVuSans-Bold-72" x="621.582031"/>
    <use xlink:href="#DejaVuSans-Bold-72" x="670.898438"/>
    <use xlink:href="#DejaVuSans-Bold-6f" x="720.214844"/>
    <use xlink:href="#DejaVuSans-Bold-72" x="788.916016"/>
   </g>
  </g>
  <g id="text_3">
   <!-- t-Statistic -->
   <g transform="translate(196.228125 5.10375) scale(0.04 -0.04)">
    <defs>
     <path id="DejaVuSans-Bold-2d" d="M 347 2297 
L 2309 2297 
L 2309 1388 
L 347 1388 
L 347 2297 
z
" transform="scale(0.015625)"/>
     <path id="DejaVuSans-Bold-73" d="M 3272 3391 
L 3272 2541 
Q 2913 2691 2578 2766 
Q 2244 2841 1947 2841 
Q 1628 2841 1473 2761 
Q 1319 2681 1319 2516 
Q 1319 2381 1436 2309 
Q 1553 2238 1856 2203 
L 2053 2175 
Q 2913 2066 3209 1816 
Q 3506 1566 3506 1031 
Q 3506 472 3093 190 
Q 2681 -91 1863 -91 
Q 1516 -91 1145 -36 
Q 775 19 384 128 
L 384 978 
Q 719 816 1070 734 
Q 1422 653 1784 653 
Q 2113 653 2278 743 
Q 2444 834 2444 1013 
Q 2444 1163 2330 1236 
Q 2216 1309 1875 1350 
L 1678 1375 
Q 931 1469 631 1722 
Q 331 1975 331 2491 
Q 331 3047 712 3315 
Q 1094 3584 1881 3584 
Q 2191 3584 2531 3537 
Q 2872 3491 3272 3391 
z
" transform="scale(0.015625)"/>
    </defs>
    <use xlink:href="#DejaVuSans-Bold-74"/>
    <use xlink:href="#DejaVuSans-Bold-2d" x="47.802734"/>
    <use xlink:href="#DejaVuSans-Bold-53" x="89.306641"/>
    <use xlink:href="#DejaVuSans-Bold-74" x="161.328125"/>
    <use xlink:href="#DejaVuSans-Bold-61" x="209.130859"/>
    <use xlink:href="#DejaVuSans-Bold-74" x="276.611328"/>
    <use xlink:href="#DejaVuSans-Bold-69" x="324.414062"/>
    <use xlink:href="#DejaVuSans-Bold-73" x="358.691406"/>
    <use xlink:href="#DejaVuSans-Bold-74" x="418.212891"/>
    <use xlink:href="#DejaVuSans-Bold-69" x="466.015625"/>
    <use xlink:href="#DejaVuSans-Bold-63" x="500.292969"/>
   </g>
  </g>
  <g id="text_4">
   <!-- p-value -->
   <g transform="translate(229.388125 5.10375) scale(0.04 -0.04)">
    <defs>
     <path id="DejaVuSans-Bold-70" d="M 1656 506 
L 1656 -1331 
L 538 -1331 
L 538 3500 
L 1656 3500 
L 1656 2988 
Q 1888 3294 2169 3439 
Q 2450 3584 2816 3584 
Q 3463 3584 3878 3070 
Q 4294 2556 4294 1747 
Q 4294 938 3878 423 
Q 3463 -91 2816 -91 
Q 2450 -91 2169 54 
Q 1888 200 1656 506 
z
M 2400 2772 
Q 2041 2772 1848 2508 
Q 1656 2244 1656 1747 
Q 1656 1250 1848 986 
Q 2041 722 2400 722 
Q 2759 722 2948 984 
Q 3138 1247 3138 1747 
Q 3138 2247 2948 2509 
Q 2759 2772 2400 2772 
z
" transform="scale(0.015625)"/>
     <path id="DejaVuSans-Bold-76" d="M 97 3500 
L 1216 3500 
L 2088 1081 
L 2956 3500 
L 4078 3500 
L 2700 0 
L 1472 0 
L 97 3500 
z
" transform="scale(0.015625)"/>
     <path id="DejaVuSans-Bold-6c" d="M 538 4863 
L 1656 4863 
L 1656 0 
L 538 0 
L 538 4863 
z
" transform="scale(0.015625)"/>
     <path id="DejaVuSans-Bold-75" d="M 500 1363 
L 500 3500 
L 1625 3500 
L 1625 3150 
Q 1625 2866 1622 2436 
Q 1619 2006 1619 1863 
Q 1619 1441 1641 1255 
Q 1663 1069 1716 984 
Q 1784 875 1895 815 
Q 2006 756 2150 756 
Q 2500 756 2700 1025 
Q 2900 1294 2900 1772 
L 2900 3500 
L 4019 3500 
L 4019 0 
L 2900 0 
L 2900 506 
Q 2647 200 2364 54 
Q 2081 -91 1741 -91 
Q 1134 -91 817 281 
Q 500 653 500 1363 
z
" transform="scale(0.015625)"/>
    </defs>
    <use xlink:href="#DejaVuSans-Bold-70"/>
    <use xlink:href="#DejaVuSans-Bold-2d" x="71.582031"/>
    <use xlink:href="#DejaVuSans-Bold-76" x="113.085938"/>
    <use xlink:href="#DejaVuSans-Bold-61" x="178.271484"/>
    <use xlink:href="#DejaVuSans-Bold-6c" x="245.751953"/>
    <use xlink:href="#DejaVuSans-Bold-75" x="280.029297"/>
    <use xlink:href="#DejaVuSans-Bold-65" x="351.220703"/>
   </g>
  </g>
  <g id="text_5">
   <!-- CI 0.025 -->
   <g transform="translate(258.821875 5.10375) scale(0.04 -0.04)">
    <defs>
     <path id="DejaVuSans-Bold-49" d="M 588 4666 
L 1791 4666 
L 1791 0 
L 588 0 
L 588 4666 
z
" transform="scale(0.015625)"/>
     <path id="DejaVuSans-Bold-30" d="M 2944 2338 
Q 2944 3213 2780 3570 
Q 2616 3928 2228 3928 
Q 1841 3928 1675 3570 
Q 1509 3213 1509 2338 
Q 1509 1453 1675 1090 
Q 1841 728 2228 728 
Q 2613 728 2778 1090 
Q 2944 1453 2944 2338 
z
M 4147 2328 
Q 4147 1169 3647 539 
Q 3147 -91 2228 -91 
Q 1306 -91 806 539 
Q 306 1169 306 2328 
Q 306 3491 806 4120 
Q 1306 4750 2228 4750 
Q 3147 4750 3647 4120 
Q 4147 3491 4147 2328 
z
" transform="scale(0.015625)"/>
     <path id="DejaVuSans-Bold-2e" d="M 653 1209 
L 1778 1209 
L 1778 0 
L 653 0 
L 653 1209 
z
" transform="scale(0.015625)"/>
     <path id="DejaVuSans-Bold-32" d="M 1844 884 
L 3897 884 
L 3897 0 
L 506 0 
L 506 884 
L 2209 2388 
Q 2438 2594 2547 2791 
Q 2656 2988 2656 3200 
Q 2656 3528 2436 3728 
Q 2216 3928 1850 3928 
Q 1569 3928 1234 3808 
Q 900 3688 519 3450 
L 519 4475 
Q 925 4609 1322 4679 
Q 1719 4750 2100 4750 
Q 2938 4750 3402 4381 
Q 3866 4013 3866 3353 
Q 3866 2972 3669 2642 
Q 3472 2313 2841 1759 
L 1844 884 
z
" transform="scale(0.015625)"/>
     <path id="DejaVuSans-Bold-35" d="M 678 4666 
L 3669 4666 
L 3669 3781 
L 1638 3781 
L 1638 3059 
Q 1775 3097 1914 3117 
Q 2053 3138 2203 3138 
Q 3056 3138 3531 2711 
Q 4006 2284 4006 1522 
Q 4006 766 3489 337 
Q 2972 -91 2053 -91 
Q 1656 -91 1267 -14 
Q 878 63 494 219 
L 494 1166 
Q 875 947 1217 837 
Q 1559 728 1863 728 
Q 2300 728 2551 942 
Q 2803 1156 2803 1522 
Q 2803 1891 2551 2103 
Q 2300 2316 1863 2316 
Q 1603 2316 1309 2248 
Q 1016 2181 678 2041 
L 678 4666 
z
" transform="scale(0.015625)"/>
    </defs>
    <use xlink:href="#DejaVuSans-Bold-43"/>
    <use xlink:href="#DejaVuSans-Bold-49" x="73.388672"/>
    <use xlink:href="#DejaVuSans-Bold-20" x="110.595703"/>
    <use xlink:href="#DejaVuSans-Bold-30" x="145.410156"/>
    <use xlink:href="#DejaVuSans-Bold-2e" x="214.990234"/>
    <use xlink:href="#DejaVuSans-Bold-30" x="252.978516"/>
    <use xlink:href="#DejaVuSans-Bold-32" x="322.558594"/>
    <use xlink:href="#DejaVuSans-Bold-35" x="392.138672"/>
   </g>
  </g>
  <g id="text_6">
   <!-- CI 0.975 -->
   <g transform="translate(289.961875 5.10375) scale(0.04 -0.04)">
    <defs>
     <path id="DejaVuSans-Bold-39" d="M 641 103 
L 641 966 
Q 928 831 1190 764 
Q 1453 697 1709 697 
Q 2247 697 2547 995 
Q 2847 1294 2900 1881 
Q 2688 1725 2447 1647 
Q 2206 1569 1925 1569 
Q 1209 1569 770 1986 
Q 331 2403 331 3084 
Q 331 3838 820 4291 
Q 1309 4744 2131 4744 
Q 3044 4744 3544 4128 
Q 4044 3513 4044 2388 
Q 4044 1231 3459 570 
Q 2875 -91 1856 -91 
Q 1528 -91 1228 -42 
Q 928 6 641 103 
z
M 2125 2350 
Q 2441 2350 2600 2554 
Q 2759 2759 2759 3169 
Q 2759 3575 2600 3781 
Q 2441 3988 2125 3988 
Q 1809 3988 1650 3781 
Q 1491 3575 1491 3169 
Q 1491 2759 1650 2554 
Q 1809 2350 2125 2350 
z
" transform="scale(0.015625)"/>
     <path id="DejaVuSans-Bold-37" d="M 428 4666 
L 3944 4666 
L 3944 3988 
L 2125 0 
L 953 0 
L 2675 3781 
L 428 3781 
L 428 4666 
z
" transform="scale(0.015625)"/>
    </defs>
    <use xlink:href="#DejaVuSans-Bold-43"/>
    <use xlink:href="#DejaVuSans-Bold-49" x="73.388672"/>
    <use xlink:href="#DejaVuSans-Bold-20" x="110.595703"/>
    <use xlink:href="#DejaVuSans-Bold-30" x="145.410156"/>
    <use xlink:href="#DejaVuSans-Bold-2e" x="214.990234"/>
    <use xlink:href="#DejaVuSans-Bold-39" x="252.978516"/>
    <use xlink:href="#DejaVuSans-Bold-37" x="322.558594"/>
    <use xlink:href="#DejaVuSans-Bold-35" x="392.138672"/>
   </g>
  </g>
  <g id="text_7">
   <!-- Intercept -->
   <g transform="translate(85.2275 13.10375) scale(0.04 -0.04)">
    <use xlink:href="#DejaVuSans-Bold-49"/>
    <use xlink:href="#DejaVuSans-Bold-6e" x="37.207031"/>
    <use xlink:href="#DejaVuSans-Bold-74" x="108.398438"/>
    <use xlink:href="#DejaVuSans-Bold-65" x="156.201172"/>
    <use xlink:href="#DejaVuSans-Bold-72" x="224.023438"/>
    <use xlink:href="#DejaVuSans-Bold-63" x="273.339844"/>
    <use xlink:href="#DejaVuSans-Bold-65" x="332.617188"/>
    <use xlink:href="#DejaVuSans-Bold-70" x="400.439453"/>
    <use xlink:href="#DejaVuSans-Bold-74" x="472.021484"/>
   </g>
  </g>
  <g id="text_8">
   <!-- 2306.1875 -->
   <g transform="translate(119.66875 13.10375) scale(0.04 -0.04)">
    <defs>
     <path id="DejaVuSans-32" d="M 1228 531 
L 3431 531 
L 3431 0 
L 469 0 
L 469 531 
Q 828 903 1448 1529 
Q 2069 2156 2228 2338 
Q 2531 2678 2651 2914 
Q 2772 3150 2772 3378 
Q 2772 3750 2511 3984 
Q 2250 4219 1831 4219 
Q 1534 4219 1204 4116 
Q 875 4013 500 3803 
L 500 4441 
Q 881 4594 1212 4672 
Q 1544 4750 1819 4750 
Q 2544 4750 2975 4387 
Q 3406 4025 3406 3419 
Q 3406 3131 3298 2873 
Q 3191 2616 2906 2266 
Q 2828 2175 2409 1742 
Q 1991 1309 1228 531 
z
" transform="scale(0.015625)"/>
     <path id="DejaVuSans-33" d="M 2597 2516 
Q 3050 2419 3304 2112 
Q 3559 1806 3559 1356 
Q 3559 666 3084 287 
Q 2609 -91 1734 -91 
Q 1441 -91 1130 -33 
Q 819 25 488 141 
L 488 750 
Q 750 597 1062 519 
Q 1375 441 1716 441 
Q 2309 441 2620 675 
Q 2931 909 2931 1356 
Q 2931 1769 2642 2001 
Q 2353 2234 1838 2234 
L 1294 2234 
L 1294 2753 
L 1863 2753 
Q 2328 2753 2575 2939 
Q 2822 3125 2822 3475 
Q 2822 3834 2567 4026 
Q 2313 4219 1838 4219 
Q 1578 4219 1281 4162 
Q 984 4106 628 3988 
L 628 4550 
Q 988 4650 1302 4700 
Q 1616 4750 1894 4750 
Q 2613 4750 3031 4423 
Q 3450 4097 3450 3541 
Q 3450 3153 3228 2886 
Q 3006 2619 2597 2516 
z
" transform="scale(0.015625)"/>
     <path id="DejaVuSans-30" d="M 2034 4250 
Q 1547 4250 1301 3770 
Q 1056 3291 1056 2328 
Q 1056 1369 1301 889 
Q 1547 409 2034 409 
Q 2525 409 2770 889 
Q 3016 1369 3016 2328 
Q 3016 3291 2770 3770 
Q 2525 4250 2034 4250 
z
M 2034 4750 
Q 2819 4750 3233 4129 
Q 3647 3509 3647 2328 
Q 3647 1150 3233 529 
Q 2819 -91 2034 -91 
Q 1250 -91 836 529 
Q 422 1150 422 2328 
Q 422 3509 836 4129 
Q 1250 4750 2034 4750 
z
" transform="scale(0.015625)"/>
     <path id="DejaVuSans-36" d="M 2113 2584 
Q 1688 2584 1439 2293 
Q 1191 2003 1191 1497 
Q 1191 994 1439 701 
Q 1688 409 2113 409 
Q 2538 409 2786 701 
Q 3034 994 3034 1497 
Q 3034 2003 2786 2293 
Q 2538 2584 2113 2584 
z
M 3366 4563 
L 3366 3988 
Q 3128 4100 2886 4159 
Q 2644 4219 2406 4219 
Q 1781 4219 1451 3797 
Q 1122 3375 1075 2522 
Q 1259 2794 1537 2939 
Q 1816 3084 2150 3084 
Q 2853 3084 3261 2657 
Q 3669 2231 3669 1497 
Q 3669 778 3244 343 
Q 2819 -91 2113 -91 
Q 1303 -91 875 529 
Q 447 1150 447 2328 
Q 447 3434 972 4092 
Q 1497 4750 2381 4750 
Q 2619 4750 2861 4703 
Q 3103 4656 3366 4563 
z
" transform="scale(0.015625)"/>
     <path id="DejaVuSans-2e" d="M 684 794 
L 1344 794 
L 1344 0 
L 684 0 
L 684 794 
z
" transform="scale(0.015625)"/>
     <path id="DejaVuSans-31" d="M 794 531 
L 1825 531 
L 1825 4091 
L 703 3866 
L 703 4441 
L 1819 4666 
L 2450 4666 
L 2450 531 
L 3481 531 
L 3481 0 
L 794 0 
L 794 531 
z
" transform="scale(0.015625)"/>
     <path id="DejaVuSans-38" d="M 2034 2216 
Q 1584 2216 1326 1975 
Q 1069 1734 1069 1313 
Q 1069 891 1326 650 
Q 1584 409 2034 409 
Q 2484 409 2743 651 
Q 3003 894 3003 1313 
Q 3003 1734 2745 1975 
Q 2488 2216 2034 2216 
z
M 1403 2484 
Q 997 2584 770 2862 
Q 544 3141 544 3541 
Q 544 4100 942 4425 
Q 1341 4750 2034 4750 
Q 2731 4750 3128 4425 
Q 3525 4100 3525 3541 
Q 3525 3141 3298 2862 
Q 3072 2584 2669 2484 
Q 3125 2378 3379 2068 
Q 3634 1759 3634 1313 
Q 3634 634 3220 271 
Q 2806 -91 2034 -91 
Q 1263 -91 848 271 
Q 434 634 434 1313 
Q 434 1759 690 2068 
Q 947 2378 1403 2484 
z
M 1172 3481 
Q 1172 3119 1398 2916 
Q 1625 2713 2034 2713 
Q 2441 2713 2670 2916 
Q 2900 3119 2900 3481 
Q 2900 3844 2670 4047 
Q 2441 4250 2034 4250 
Q 1625 4250 1398 4047 
Q 1172 3844 1172 3481 
z
" transform="scale(0.015625)"/>
     <path id="DejaVuSans-37" d="M 525 4666 
L 3525 4666 
L 3525 4397 
L 1831 0 
L 1172 0 
L 2766 4134 
L 525 4134 
L 525 4666 
z
" transform="scale(0.015625)"/>
     <path id="DejaVuSans-35" d="M 691 4666 
L 3169 4666 
L 3169 4134 
L 1269 4134 
L 1269 2991 
Q 1406 3038 1543 3061 
Q 1681 3084 1819 3084 
Q 2600 3084 3056 2656 
Q 3513 2228 3513 1497 
Q 3513 744 3044 326 
Q 2575 -91 1722 -91 
Q 1428 -91 1123 -41 
Q 819 9 494 109 
L 494 744 
Q 775 591 1075 516 
Q 1375 441 1709 441 
Q 2250 441 2565 725 
Q 2881 1009 2881 1497 
Q 2881 1984 2565 2268 
Q 2250 2553 1709 2553 
Q 1456 2553 1204 2497 
Q 953 2441 691 2322 
L 691 4666 
z
" transform="scale(0.015625)"/>
    </defs>
    <use xlink:href="#DejaVuSans-32"/>
    <use xlink:href="#DejaVuSans-33" x="63.623047"/>
    <use xlink:href="#DejaVuSans-30" x="127.246094"/>
    <use xlink:href="#DejaVuSans-36" x="190.869141"/>
    <use xlink:href="#DejaVuSans-2e" x="254.492188"/>
    <use xlink:href="#DejaVuSans-31" x="286.279297"/>
    <use xlink:href="#DejaVuSans-38" x="349.902344"/>
    <use xlink:href="#DejaVuSans-37" x="413.525391"/>
    <use xlink:href="#DejaVuSans-35" x="477.148438"/>
   </g>
  </g>
  <g id="text_9">
   <!-- 3.144 -->
   <g transform="translate(174.03875 13.10375) scale(0.04 -0.04)">
    <defs>
     <path id="DejaVuSans-34" d="M 2419 4116 
L 825 1625 
L 2419 1625 
L 2419 4116 
z
M 2253 4666 
L 3047 4666 
L 3047 1625 
L 3713 1625 
L 3713 1100 
L 3047 1100 
L 3047 0 
L 2419 0 
L 2419 1100 
L 313 1100 
L 313 1709 
L 2253 4666 
z
" transform="scale(0.015625)"/>
    </defs>
    <use xlink:href="#DejaVuSans-33"/>
    <use xlink:href="#DejaVuSans-2e" x="63.623047"/>
    <use xlink:href="#DejaVuSans-31" x="95.410156"/>
    <use xlink:href="#DejaVuSans-34" x="159.033203"/>
    <use xlink:href="#DejaVuSans-34" x="222.65625"/>
   </g>
  </g>
  <g id="text_10">
   <!-- 733.422 -->
   <g transform="translate(202.06875 13.10375) scale(0.04 -0.04)">
    <use xlink:href="#DejaVuSans-37"/>
    <use xlink:href="#DejaVuSans-33" x="63.623047"/>
    <use xlink:href="#DejaVuSans-33" x="127.246094"/>
    <use xlink:href="#DejaVuSans-2e" x="190.869141"/>
    <use xlink:href="#DejaVuSans-34" x="222.65625"/>
    <use xlink:href="#DejaVuSans-32" x="286.279297"/>
    <use xlink:href="#DejaVuSans-32" x="349.902344"/>
   </g>
  </g>
  <g id="text_11">
   <!-- 0.0 -->
   <g transform="translate(239.78875 13.10375) scale(0.04 -0.04)">
    <use xlink:href="#DejaVuSans-30"/>
    <use xlink:href="#DejaVuSans-2e" x="63.623047"/>
    <use xlink:href="#DejaVuSans-30" x="95.410156"/>
   </g>
  </g>
  <g id="text_12">
   <!-- 2299.698 -->
   <g transform="translate(258.20375 13.10375) scale(0.04 -0.04)">
    <defs>
     <path id="DejaVuSans-39" d="M 703 97 
L 703 672 
Q 941 559 1184 500 
Q 1428 441 1663 441 
Q 2288 441 2617 861 
Q 2947 1281 2994 2138 
Q 2813 1869 2534 1725 
Q 2256 1581 1919 1581 
Q 1219 1581 811 2004 
Q 403 2428 403 3163 
Q 403 3881 828 4315 
Q 1253 4750 1959 4750 
Q 2769 4750 3195 4129 
Q 3622 3509 3622 2328 
Q 3622 1225 3098 567 
Q 2575 -91 1691 -91 
Q 1453 -91 1209 -44 
Q 966 3 703 97 
z
M 1959 2075 
Q 2384 2075 2632 2365 
Q 2881 2656 2881 3163 
Q 2881 3666 2632 3958 
Q 2384 4250 1959 4250 
Q 1534 4250 1286 3958 
Q 1038 3666 1038 3163 
Q 1038 2656 1286 2365 
Q 1534 2075 1959 2075 
z
" transform="scale(0.015625)"/>
    </defs>
    <use xlink:href="#DejaVuSans-32"/>
    <use xlink:href="#DejaVuSans-32" x="63.623047"/>
    <use xlink:href="#DejaVuSans-39" x="127.246094"/>
    <use xlink:href="#DejaVuSans-39" x="190.869141"/>
    <use xlink:href="#DejaVuSans-2e" x="254.492188"/>
    <use xlink:href="#DejaVuSans-36" x="286.279297"/>
    <use xlink:href="#DejaVuSans-39" x="349.902344"/>
    <use xlink:href="#DejaVuSans-38" x="413.525391"/>
   </g>
  </g>
  <g id="text_13">
   <!-- 2312.677 -->
   <g transform="translate(289.34375 13.10375) scale(0.04 -0.04)">
    <use xlink:href="#DejaVuSans-32"/>
    <use xlink:href="#DejaVuSans-33" x="63.623047"/>
    <use xlink:href="#DejaVuSans-31" x="127.246094"/>
    <use xlink:href="#DejaVuSans-32" x="190.869141"/>
    <use xlink:href="#DejaVuSans-2e" x="254.492188"/>
    <use xlink:href="#DejaVuSans-36" x="286.279297"/>
    <use xlink:href="#DejaVuSans-37" x="349.902344"/>
    <use xlink:href="#DejaVuSans-37" x="413.525391"/>
   </g>
  </g>
  <g id="text_14">
   <!-- CPU (1500m) -->
   <g transform="translate(76.555 21.10375) scale(0.04 -0.04)">
    <defs>
     <path id="DejaVuSans-Bold-50" d="M 588 4666 
L 2584 4666 
Q 3475 4666 3951 4270 
Q 4428 3875 4428 3144 
Q 4428 2409 3951 2014 
Q 3475 1619 2584 1619 
L 1791 1619 
L 1791 0 
L 588 0 
L 588 4666 
z
M 1791 3794 
L 1791 2491 
L 2456 2491 
Q 2806 2491 2997 2661 
Q 3188 2831 3188 3144 
Q 3188 3456 2997 3625 
Q 2806 3794 2456 3794 
L 1791 3794 
z
" transform="scale(0.015625)"/>
     <path id="DejaVuSans-Bold-55" d="M 588 4666 
L 1791 4666 
L 1791 1869 
Q 1791 1291 1980 1042 
Q 2169 794 2597 794 
Q 3028 794 3217 1042 
Q 3406 1291 3406 1869 
L 3406 4666 
L 4609 4666 
L 4609 1869 
Q 4609 878 4112 393 
Q 3616 -91 2597 -91 
Q 1581 -91 1084 393 
Q 588 878 588 1869 
L 588 4666 
z
" transform="scale(0.015625)"/>
     <path id="DejaVuSans-Bold-28" d="M 2413 -844 
L 1484 -844 
Q 1006 -72 778 623 
Q 550 1319 550 2003 
Q 550 2688 779 3389 
Q 1009 4091 1484 4856 
L 2413 4856 
Q 2013 4116 1813 3408 
Q 1613 2700 1613 2009 
Q 1613 1319 1811 609 
Q 2009 -100 2413 -844 
z
" transform="scale(0.015625)"/>
     <path id="DejaVuSans-Bold-31" d="M 750 831 
L 1813 831 
L 1813 3847 
L 722 3622 
L 722 4441 
L 1806 4666 
L 2950 4666 
L 2950 831 
L 4013 831 
L 4013 0 
L 750 0 
L 750 831 
z
" transform="scale(0.015625)"/>
     <path id="DejaVuSans-Bold-6d" d="M 3781 2919 
Q 3994 3244 4286 3414 
Q 4578 3584 4928 3584 
Q 5531 3584 5847 3212 
Q 6163 2841 6163 2131 
L 6163 0 
L 5038 0 
L 5038 1825 
Q 5041 1866 5042 1909 
Q 5044 1953 5044 2034 
Q 5044 2406 4934 2573 
Q 4825 2741 4581 2741 
Q 4263 2741 4089 2478 
Q 3916 2216 3909 1719 
L 3909 0 
L 2784 0 
L 2784 1825 
Q 2784 2406 2684 2573 
Q 2584 2741 2328 2741 
Q 2006 2741 1831 2477 
Q 1656 2213 1656 1722 
L 1656 0 
L 531 0 
L 531 3500 
L 1656 3500 
L 1656 2988 
Q 1863 3284 2130 3434 
Q 2397 3584 2719 3584 
Q 3081 3584 3359 3409 
Q 3638 3234 3781 2919 
z
" transform="scale(0.015625)"/>
     <path id="DejaVuSans-Bold-29" d="M 513 -844 
Q 913 -100 1113 609 
Q 1313 1319 1313 2009 
Q 1313 2700 1113 3408 
Q 913 4116 513 4856 
L 1441 4856 
Q 1916 4091 2145 3389 
Q 2375 2688 2375 2003 
Q 2375 1319 2147 623 
Q 1919 -72 1441 -844 
L 513 -844 
z
" transform="scale(0.015625)"/>
    </defs>
    <use xlink:href="#DejaVuSans-Bold-43"/>
    <use xlink:href="#DejaVuSans-Bold-50" x="73.388672"/>
    <use xlink:href="#DejaVuSans-Bold-55" x="146.679688"/>
    <use xlink:href="#DejaVuSans-Bold-20" x="227.880859"/>
    <use xlink:href="#DejaVuSans-Bold-28" x="262.695312"/>
    <use xlink:href="#DejaVuSans-Bold-31" x="308.398438"/>
    <use xlink:href="#DejaVuSans-Bold-35" x="377.978516"/>
    <use xlink:href="#DejaVuSans-Bold-30" x="447.558594"/>
    <use xlink:href="#DejaVuSans-Bold-30" x="517.138672"/>
    <use xlink:href="#DejaVuSans-Bold-6d" x="586.71875"/>
    <use xlink:href="#DejaVuSans-Bold-29" x="690.917969"/>
   </g>
  </g>
  <g id="text_15">
   <!-- -883.3750 -->
   <g transform="translate(120.770625 21.10375) scale(0.04 -0.04)">
    <defs>
     <path id="DejaVuSans-2d" d="M 313 2009 
L 1997 2009 
L 1997 1497 
L 313 1497 
L 313 2009 
z
" transform="scale(0.015625)"/>
    </defs>
    <use xlink:href="#DejaVuSans-2d"/>
    <use xlink:href="#DejaVuSans-38" x="36.083984"/>
    <use xlink:href="#DejaVuSans-38" x="99.707031"/>
    <use xlink:href="#DejaVuSans-33" x="163.330078"/>
    <use xlink:href="#DejaVuSans-2e" x="226.953125"/>
    <use xlink:href="#DejaVuSans-33" x="258.740234"/>
    <use xlink:href="#DejaVuSans-37" x="322.363281"/>
    <use xlink:href="#DejaVuSans-35" x="385.986328"/>
    <use xlink:href="#DejaVuSans-30" x="449.609375"/>
   </g>
  </g>
  <g id="text_16">
   <!-- 3.144 -->
   <g transform="translate(174.03875 21.10375) scale(0.04 -0.04)">
    <use xlink:href="#DejaVuSans-33"/>
    <use xlink:href="#DejaVuSans-2e" x="63.623047"/>
    <use xlink:href="#DejaVuSans-31" x="95.410156"/>
    <use xlink:href="#DejaVuSans-34" x="159.033203"/>
    <use xlink:href="#DejaVuSans-34" x="222.65625"/>
   </g>
  </g>
  <g id="text_17">
   <!-- -280.934 -->
   <g transform="translate(200.625625 21.10375) scale(0.04 -0.04)">
    <use xlink:href="#DejaVuSans-2d"/>
    <use xlink:href="#DejaVuSans-32" x="36.083984"/>
    <use xlink:href="#DejaVuSans-38" x="99.707031"/>
    <use xlink:href="#DejaVuSans-30" x="163.330078"/>
    <use xlink:href="#DejaVuSans-2e" x="226.953125"/>
    <use xlink:href="#DejaVuSans-39" x="258.740234"/>
    <use xlink:href="#DejaVuSans-33" x="322.363281"/>
    <use xlink:href="#DejaVuSans-34" x="385.986328"/>
   </g>
  </g>
  <g id="text_18">
   <!-- 0.0 -->
   <g transform="translate(239.78875 21.10375) scale(0.04 -0.04)">
    <use xlink:href="#DejaVuSans-30"/>
    <use xlink:href="#DejaVuSans-2e" x="63.623047"/>
    <use xlink:href="#DejaVuSans-30" x="95.410156"/>
   </g>
  </g>
  <g id="text_19">
   <!-- -889.865 -->
   <g transform="translate(259.305625 21.10375) scale(0.04 -0.04)">
    <use xlink:href="#DejaVuSans-2d"/>
    <use xlink:href="#DejaVuSans-38" x="36.083984"/>
    <use xlink:href="#DejaVuSans-38" x="99.707031"/>
    <use xlink:href="#DejaVuSans-39" x="163.330078"/>
    <use xlink:href="#DejaVuSans-2e" x="226.953125"/>
    <use xlink:href="#DejaVuSans-38" x="258.740234"/>
    <use xlink:href="#DejaVuSans-36" x="322.363281"/>
    <use xlink:href="#DejaVuSans-35" x="385.986328"/>
   </g>
  </g>
  <g id="text_20">
   <!-- -876.885 -->
   <g transform="translate(290.445625 21.10375) scale(0.04 -0.04)">
    <use xlink:href="#DejaVuSans-2d"/>
    <use xlink:href="#DejaVuSans-38" x="36.083984"/>
    <use xlink:href="#DejaVuSans-37" x="99.707031"/>
    <use xlink:href="#DejaVuSans-36" x="163.330078"/>
    <use xlink:href="#DejaVuSans-2e" x="226.953125"/>
    <use xlink:href="#DejaVuSans-38" x="258.740234"/>
    <use xlink:href="#DejaVuSans-38" x="322.363281"/>
    <use xlink:href="#DejaVuSans-35" x="385.986328"/>
   </g>
  </g>
  <g id="text_21">
   <!-- Memory (1.5Gi) -->
   <g transform="translate(71.04125 29.088125) scale(0.04 -0.04)">
    <defs>
     <path id="DejaVuSans-Bold-4d" d="M 588 4666 
L 2119 4666 
L 3181 2169 
L 4250 4666 
L 5778 4666 
L 5778 0 
L 4641 0 
L 4641 3413 
L 3566 897 
L 2803 897 
L 1728 3413 
L 1728 0 
L 588 0 
L 588 4666 
z
" transform="scale(0.015625)"/>
     <path id="DejaVuSans-Bold-79" d="M 78 3500 
L 1197 3500 
L 2138 1125 
L 2938 3500 
L 4056 3500 
L 2584 -331 
Q 2363 -916 2067 -1148 
Q 1772 -1381 1288 -1381 
L 641 -1381 
L 641 -647 
L 991 -647 
Q 1275 -647 1404 -556 
Q 1534 -466 1606 -231 
L 1638 -134 
L 78 3500 
z
" transform="scale(0.015625)"/>
     <path id="DejaVuSans-Bold-47" d="M 4781 347 
Q 4331 128 3847 18 
Q 3363 -91 2847 -91 
Q 1681 -91 1000 561 
Q 319 1213 319 2328 
Q 319 3456 1012 4103 
Q 1706 4750 2913 4750 
Q 3378 4750 3804 4662 
Q 4231 4575 4609 4403 
L 4609 3438 
Q 4219 3659 3833 3768 
Q 3447 3878 3059 3878 
Q 2341 3878 1952 3476 
Q 1563 3075 1563 2328 
Q 1563 1588 1938 1184 
Q 2313 781 3003 781 
Q 3191 781 3352 804 
Q 3513 828 3641 878 
L 3641 1784 
L 2906 1784 
L 2906 2591 
L 4781 2591 
L 4781 347 
z
" transform="scale(0.015625)"/>
    </defs>
    <use xlink:href="#DejaVuSans-Bold-4d"/>
    <use xlink:href="#DejaVuSans-Bold-65" x="99.511719"/>
    <use xlink:href="#DejaVuSans-Bold-6d" x="167.333984"/>
    <use xlink:href="#DejaVuSans-Bold-6f" x="271.533203"/>
    <use xlink:href="#DejaVuSans-Bold-72" x="340.234375"/>
    <use xlink:href="#DejaVuSans-Bold-79" x="389.550781"/>
    <use xlink:href="#DejaVuSans-Bold-20" x="454.736328"/>
    <use xlink:href="#DejaVuSans-Bold-28" x="489.550781"/>
    <use xlink:href="#DejaVuSans-Bold-31" x="535.253906"/>
    <use xlink:href="#DejaVuSans-Bold-2e" x="604.833984"/>
    <use xlink:href="#DejaVuSans-Bold-35" x="642.822266"/>
    <use xlink:href="#DejaVuSans-Bold-47" x="712.402344"/>
    <use xlink:href="#DejaVuSans-Bold-69" x="794.482422"/>
    <use xlink:href="#DejaVuSans-Bold-29" x="828.759766"/>
   </g>
  </g>
  <g id="text_22">
   <!-- 369.0000 -->
   <g transform="translate(122.21375 29.10375) scale(0.04 -0.04)">
    <use xlink:href="#DejaVuSans-33"/>
    <use xlink:href="#DejaVuSans-36" x="63.623047"/>
    <use xlink:href="#DejaVuSans-39" x="127.246094"/>
    <use xlink:href="#DejaVuSans-2e" x="190.869141"/>
    <use xlink:href="#DejaVuSans-30" x="222.65625"/>
    <use xlink:href="#DejaVuSans-30" x="286.279297"/>
    <use xlink:href="#DejaVuSans-30" x="349.902344"/>
    <use xlink:href="#DejaVuSans-30" x="413.525391"/>
   </g>
  </g>
  <g id="text_23">
   <!-- 3.144 -->
   <g transform="translate(174.03875 29.10375) scale(0.04 -0.04)">
    <use xlink:href="#DejaVuSans-33"/>
    <use xlink:href="#DejaVuSans-2e" x="63.623047"/>
    <use xlink:href="#DejaVuSans-31" x="95.410156"/>
    <use xlink:href="#DejaVuSans-34" x="159.033203"/>
    <use xlink:href="#DejaVuSans-34" x="222.65625"/>
   </g>
  </g>
  <g id="text_24">
   <!-- 117.351 -->
   <g transform="translate(202.06875 29.10375) scale(0.04 -0.04)">
    <use xlink:href="#DejaVuSans-31"/>
    <use xlink:href="#DejaVuSans-31" x="63.623047"/>
    <use xlink:href="#DejaVuSans-37" x="127.246094"/>
    <use xlink:href="#DejaVuSans-2e" x="190.869141"/>
    <use xlink:href="#DejaVuSans-33" x="222.65625"/>
    <use xlink:href="#DejaVuSans-35" x="286.279297"/>
    <use xlink:href="#DejaVuSans-31" x="349.902344"/>
   </g>
  </g>
  <g id="text_25">
   <!-- 0.0 -->
   <g transform="translate(239.78875 29.10375) scale(0.04 -0.04)">
    <use xlink:href="#DejaVuSans-30"/>
    <use xlink:href="#DejaVuSans-2e" x="63.623047"/>
    <use xlink:href="#DejaVuSans-30" x="95.410156"/>
   </g>
  </g>
  <g id="text_26">
   <!-- 362.510 -->
   <g transform="translate(260.74875 29.10375) scale(0.04 -0.04)">
    <use xlink:href="#DejaVuSans-33"/>
    <use xlink:href="#DejaVuSans-36" x="63.623047"/>
    <use xlink:href="#DejaVuSans-32" x="127.246094"/>
    <use xlink:href="#DejaVuSans-2e" x="190.869141"/>
    <use xlink:href="#DejaVuSans-35" x="222.65625"/>
    <use xlink:href="#DejaVuSans-31" x="286.279297"/>
    <use xlink:href="#DejaVuSans-30" x="349.902344"/>
   </g>
  </g>
  <g id="text_27">
   <!-- 375.490 -->
   <g transform="translate(291.88875 29.10375) scale(0.04 -0.04)">
    <use xlink:href="#DejaVuSans-33"/>
    <use xlink:href="#DejaVuSans-37" x="63.623047"/>
    <use xlink:href="#DejaVuSans-35" x="127.246094"/>
    <use xlink:href="#DejaVuSans-2e" x="190.869141"/>
    <use xlink:href="#DejaVuSans-34" x="222.65625"/>
    <use xlink:href="#DejaVuSans-39" x="286.279297"/>
    <use xlink:href="#DejaVuSans-30" x="349.902344"/>
   </g>
  </g>
  <g id="text_28">
   <!-- Network (FashionMNISTCNN) -->
   <g transform="translate(40.474375 37.10375) scale(0.04 -0.04)">
    <defs>
     <path id="DejaVuSans-Bold-4e" d="M 588 4666 
L 1931 4666 
L 3628 1466 
L 3628 4666 
L 4769 4666 
L 4769 0 
L 3425 0 
L 1728 3200 
L 1728 0 
L 588 0 
L 588 4666 
z
" transform="scale(0.015625)"/>
     <path id="DejaVuSans-Bold-77" d="M 225 3500 
L 1313 3500 
L 1900 1088 
L 2491 3500 
L 3425 3500 
L 4013 1113 
L 4603 3500 
L 5691 3500 
L 4769 0 
L 3547 0 
L 2956 2406 
L 2369 0 
L 1147 0 
L 225 3500 
z
" transform="scale(0.015625)"/>
     <path id="DejaVuSans-Bold-6b" d="M 538 4863 
L 1656 4863 
L 1656 2216 
L 2944 3500 
L 4244 3500 
L 2534 1894 
L 4378 0 
L 3022 0 
L 1656 1459 
L 1656 0 
L 538 0 
L 538 4863 
z
" transform="scale(0.015625)"/>
     <path id="DejaVuSans-Bold-46" d="M 588 4666 
L 3834 4666 
L 3834 3756 
L 1791 3756 
L 1791 2888 
L 3713 2888 
L 3713 1978 
L 1791 1978 
L 1791 0 
L 588 0 
L 588 4666 
z
" transform="scale(0.015625)"/>
     <path id="DejaVuSans-Bold-68" d="M 4056 2131 
L 4056 0 
L 2931 0 
L 2931 347 
L 2931 1625 
Q 2931 2084 2911 2256 
Q 2891 2428 2841 2509 
Q 2775 2619 2662 2680 
Q 2550 2741 2406 2741 
Q 2056 2741 1856 2470 
Q 1656 2200 1656 1722 
L 1656 0 
L 538 0 
L 538 4863 
L 1656 4863 
L 1656 2988 
Q 1909 3294 2193 3439 
Q 2478 3584 2822 3584 
Q 3428 3584 3742 3212 
Q 4056 2841 4056 2131 
z
" transform="scale(0.015625)"/>
     <path id="DejaVuSans-Bold-54" d="M 31 4666 
L 4331 4666 
L 4331 3756 
L 2784 3756 
L 2784 0 
L 1581 0 
L 1581 3756 
L 31 3756 
L 31 4666 
z
" transform="scale(0.015625)"/>
    </defs>
    <use xlink:href="#DejaVuSans-Bold-4e"/>
    <use xlink:href="#DejaVuSans-Bold-65" x="83.691406"/>
    <use xlink:href="#DejaVuSans-Bold-74" x="151.513672"/>
    <use xlink:href="#DejaVuSans-Bold-77" x="199.316406"/>
    <use xlink:href="#DejaVuSans-Bold-6f" x="291.699219"/>
    <use xlink:href="#DejaVuSans-Bold-72" x="360.400391"/>
    <use xlink:href="#DejaVuSans-Bold-6b" x="409.716797"/>
    <use xlink:href="#DejaVuSans-Bold-20" x="476.220703"/>
    <use xlink:href="#DejaVuSans-Bold-28" x="511.035156"/>
    <use xlink:href="#DejaVuSans-Bold-46" x="556.738281"/>
    <use xlink:href="#DejaVuSans-Bold-61" x="619.173828"/>
    <use xlink:href="#DejaVuSans-Bold-73" x="686.654297"/>
    <use xlink:href="#DejaVuSans-Bold-68" x="746.175781"/>
    <use xlink:href="#DejaVuSans-Bold-69" x="817.367188"/>
    <use xlink:href="#DejaVuSans-Bold-6f" x="851.644531"/>
    <use xlink:href="#DejaVuSans-Bold-6e" x="920.345703"/>
    <use xlink:href="#DejaVuSans-Bold-4d" x="991.537109"/>
    <use xlink:href="#DejaVuSans-Bold-4e" x="1091.048828"/>
    <use xlink:href="#DejaVuSans-Bold-49" x="1174.740234"/>
    <use xlink:href="#DejaVuSans-Bold-53" x="1211.947266"/>
    <use xlink:href="#DejaVuSans-Bold-54" x="1283.96875"/>
    <use xlink:href="#DejaVuSans-Bold-43" x="1352.181641"/>
    <use xlink:href="#DejaVuSans-Bold-4e" x="1425.570312"/>
    <use xlink:href="#DejaVuSans-Bold-4e" x="1509.261719"/>
    <use xlink:href="#DejaVuSans-Bold-29" x="1592.953125"/>
   </g>
  </g>
  <g id="text_29">
   <!-- -1927.5625 -->
   <g transform="translate(118.225625 37.10375) scale(0.04 -0.04)">
    <use xlink:href="#DejaVuSans-2d"/>
    <use xlink:href="#DejaVuSans-31" x="36.083984"/>
    <use xlink:href="#DejaVuSans-39" x="99.707031"/>
    <use xlink:href="#DejaVuSans-32" x="163.330078"/>
    <use xlink:href="#DejaVuSans-37" x="226.953125"/>
    <use xlink:href="#DejaVuSans-2e" x="290.576172"/>
    <use xlink:href="#DejaVuSans-35" x="322.363281"/>
    <use xlink:href="#DejaVuSans-36" x="385.986328"/>
    <use xlink:href="#DejaVuSans-32" x="449.609375"/>
    <use xlink:href="#DejaVuSans-35" x="513.232422"/>
   </g>
  </g>
  <g id="text_30">
   <!-- 3.144 -->
   <g transform="translate(174.03875 37.10375) scale(0.04 -0.04)">
    <use xlink:href="#DejaVuSans-33"/>
    <use xlink:href="#DejaVuSans-2e" x="63.623047"/>
    <use xlink:href="#DejaVuSans-31" x="95.410156"/>
    <use xlink:href="#DejaVuSans-34" x="159.033203"/>
    <use xlink:href="#DejaVuSans-34" x="222.65625"/>
   </g>
  </g>
  <g id="text_31">
   <!-- -613.011 -->
   <g transform="translate(200.625625 37.10375) scale(0.04 -0.04)">
    <use xlink:href="#DejaVuSans-2d"/>
    <use xlink:href="#DejaVuSans-36" x="36.083984"/>
    <use xlink:href="#DejaVuSans-31" x="99.707031"/>
    <use xlink:href="#DejaVuSans-33" x="163.330078"/>
    <use xlink:href="#DejaVuSans-2e" x="226.953125"/>
    <use xlink:href="#DejaVuSans-30" x="258.740234"/>
    <use xlink:href="#DejaVuSans-31" x="322.363281"/>
    <use xlink:href="#DejaVuSans-31" x="385.986328"/>
   </g>
  </g>
  <g id="text_32">
   <!-- 0.0 -->
   <g transform="translate(239.78875 37.10375) scale(0.04 -0.04)">
    <use xlink:href="#DejaVuSans-30"/>
    <use xlink:href="#DejaVuSans-2e" x="63.623047"/>
    <use xlink:href="#DejaVuSans-30" x="95.410156"/>
   </g>
  </g>
  <g id="text_33">
   <!-- -1934.052 -->
   <g transform="translate(256.760625 37.10375) scale(0.04 -0.04)">
    <use xlink:href="#DejaVuSans-2d"/>
    <use xlink:href="#DejaVuSans-31" x="36.083984"/>
    <use xlink:href="#DejaVuSans-39" x="99.707031"/>
    <use xlink:href="#DejaVuSans-33" x="163.330078"/>
    <use xlink:href="#DejaVuSans-34" x="226.953125"/>
    <use xlink:href="#DejaVuSans-2e" x="290.576172"/>
    <use xlink:href="#DejaVuSans-30" x="322.363281"/>
    <use xlink:href="#DejaVuSans-35" x="385.986328"/>
    <use xlink:href="#DejaVuSans-32" x="449.609375"/>
   </g>
  </g>
  <g id="text_34">
   <!-- -1921.073 -->
   <g transform="translate(287.900625 37.10375) scale(0.04 -0.04)">
    <use xlink:href="#DejaVuSans-2d"/>
    <use xlink:href="#DejaVuSans-31" x="36.083984"/>
    <use xlink:href="#DejaVuSans-39" x="99.707031"/>
    <use xlink:href="#DejaVuSans-32" x="163.330078"/>
    <use xlink:href="#DejaVuSans-31" x="226.953125"/>
    <use xlink:href="#DejaVuSans-2e" x="290.576172"/>
    <use xlink:href="#DejaVuSans-30" x="322.363281"/>
    <use xlink:href="#DejaVuSans-37" x="385.986328"/>
    <use xlink:href="#DejaVuSans-33" x="449.609375"/>
   </g>
  </g>
  <g id="text_35">
   <!-- Epochs (10) -->
   <g transform="translate(79.461875 45.10375) scale(0.04 -0.04)">
    <use xlink:href="#DejaVuSans-Bold-45"/>
    <use xlink:href="#DejaVuSans-Bold-70" x="68.310547"/>
    <use xlink:href="#DejaVuSans-Bold-6f" x="139.892578"/>
    <use xlink:href="#DejaVuSans-Bold-63" x="208.59375"/>
    <use xlink:href="#DejaVuSans-Bold-68" x="267.871094"/>
    <use xlink:href="#DejaVuSans-Bold-73" x="339.0625"/>
    <use xlink:href="#DejaVuSans-Bold-20" x="398.583984"/>
    <use xlink:href="#DejaVuSans-Bold-28" x="433.398438"/>
    <use xlink:href="#DejaVuSans-Bold-31" x="479.101562"/>
    <use xlink:href="#DejaVuSans-Bold-30" x="548.681641"/>
    <use xlink:href="#DejaVuSans-Bold-29" x="618.261719"/>
   </g>
  </g>
  <g id="text_36">
   <!-- 873.0625 -->
   <g transform="translate(122.21375 45.10375) scale(0.04 -0.04)">
    <use xlink:href="#DejaVuSans-38"/>
    <use xlink:href="#DejaVuSans-37" x="63.623047"/>
    <use xlink:href="#DejaVuSans-33" x="127.246094"/>
    <use xlink:href="#DejaVuSans-2e" x="190.869141"/>
    <use xlink:href="#DejaVuSans-30" x="222.65625"/>
    <use xlink:href="#DejaVuSans-36" x="286.279297"/>
    <use xlink:href="#DejaVuSans-32" x="349.902344"/>
    <use xlink:href="#DejaVuSans-35" x="413.525391"/>
   </g>
  </g>
  <g id="text_37">
   <!-- 3.144 -->
   <g transform="translate(174.03875 45.10375) scale(0.04 -0.04)">
    <use xlink:href="#DejaVuSans-33"/>
    <use xlink:href="#DejaVuSans-2e" x="63.623047"/>
    <use xlink:href="#DejaVuSans-31" x="95.410156"/>
    <use xlink:href="#DejaVuSans-34" x="159.033203"/>
    <use xlink:href="#DejaVuSans-34" x="222.65625"/>
   </g>
  </g>
  <g id="text_38">
   <!-- 277.655 -->
   <g transform="translate(202.06875 45.10375) scale(0.04 -0.04)">
    <use xlink:href="#DejaVuSans-32"/>
    <use xlink:href="#DejaVuSans-37" x="63.623047"/>
    <use xlink:href="#DejaVuSans-37" x="127.246094"/>
    <use xlink:href="#DejaVuSans-2e" x="190.869141"/>
    <use xlink:href="#DejaVuSans-36" x="222.65625"/>
    <use xlink:href="#DejaVuSans-35" x="286.279297"/>
    <use xlink:href="#DejaVuSans-35" x="349.902344"/>
   </g>
  </g>
  <g id="text_39">
   <!-- 0.0 -->
   <g transform="translate(239.78875 45.10375) scale(0.04 -0.04)">
    <use xlink:href="#DejaVuSans-30"/>
    <use xlink:href="#DejaVuSans-2e" x="63.623047"/>
    <use xlink:href="#DejaVuSans-30" x="95.410156"/>
   </g>
  </g>
  <g id="text_40">
   <!-- 866.573 -->
   <g transform="translate(260.74875 45.10375) scale(0.04 -0.04)">
    <use xlink:href="#DejaVuSans-38"/>
    <use xlink:href="#DejaVuSans-36" x="63.623047"/>
    <use xlink:href="#DejaVuSans-36" x="127.246094"/>
    <use xlink:href="#DejaVuSans-2e" x="190.869141"/>
    <use xlink:href="#DejaVuSans-35" x="222.65625"/>
    <use xlink:href="#DejaVuSans-37" x="286.279297"/>
    <use xlink:href="#DejaVuSans-33" x="349.902344"/>
   </g>
  </g>
  <g id="text_41">
   <!-- 879.552 -->
   <g transform="translate(291.88875 45.10375) scale(0.04 -0.04)">
    <use xlink:href="#DejaVuSans-38"/>
    <use xlink:href="#DejaVuSans-37" x="63.623047"/>
    <use xlink:href="#DejaVuSans-39" x="127.246094"/>
    <use xlink:href="#DejaVuSans-2e" x="190.869141"/>
    <use xlink:href="#DejaVuSans-35" x="222.65625"/>
    <use xlink:href="#DejaVuSans-35" x="286.279297"/>
    <use xlink:href="#DejaVuSans-32" x="349.902344"/>
   </g>
  </g>
  <g id="text_42">
   <!-- CPU (1500m)*Memory (1.5Gi) -->
   <g transform="translate(39.484375 53.088125) scale(0.04 -0.04)">
    <defs>
     <path id="DejaVuSans-Bold-2a" d="M 3219 3803 
L 2188 3263 
L 3219 2719 
L 2981 2278 
L 1941 2853 
L 1941 1778 
L 1409 1778 
L 1409 2853 
L 366 2278 
L 128 2719 
L 1172 3263 
L 128 3803 
L 366 4244 
L 1409 3675 
L 1409 4750 
L 1941 4750 
L 1941 3675 
L 2981 4244 
L 3219 3803 
z
" transform="scale(0.015625)"/>
    </defs>
    <use xlink:href="#DejaVuSans-Bold-43"/>
    <use xlink:href="#DejaVuSans-Bold-50" x="73.388672"/>
    <use xlink:href="#DejaVuSans-Bold-55" x="146.679688"/>
    <use xlink:href="#DejaVuSans-Bold-20" x="227.880859"/>
    <use xlink:href="#DejaVuSans-Bold-28" x="262.695312"/>
    <use xlink:href="#DejaVuSans-Bold-31" x="308.398438"/>
    <use xlink:href="#DejaVuSans-Bold-35" x="377.978516"/>
    <use xlink:href="#DejaVuSans-Bold-30" x="447.558594"/>
    <use xlink:href="#DejaVuSans-Bold-30" x="517.138672"/>
    <use xlink:href="#DejaVuSans-Bold-6d" x="586.71875"/>
    <use xlink:href="#DejaVuSans-Bold-29" x="690.917969"/>
    <use xlink:href="#DejaVuSans-Bold-2a" x="736.621094"/>
    <use xlink:href="#DejaVuSans-Bold-4d" x="788.916016"/>
    <use xlink:href="#DejaVuSans-Bold-65" x="888.427734"/>
    <use xlink:href="#DejaVuSans-Bold-6d" x="956.25"/>
    <use xlink:href="#DejaVuSans-Bold-6f" x="1060.449219"/>
    <use xlink:href="#DejaVuSans-Bold-72" x="1129.150391"/>
    <use xlink:href="#DejaVuSans-Bold-79" x="1178.466797"/>
    <use xlink:href="#DejaVuSans-Bold-20" x="1243.652344"/>
    <use xlink:href="#DejaVuSans-Bold-28" x="1278.466797"/>
    <use xlink:href="#DejaVuSans-Bold-31" x="1324.169922"/>
    <use xlink:href="#DejaVuSans-Bold-2e" x="1393.75"/>
    <use xlink:href="#DejaVuSans-Bold-35" x="1431.738281"/>
    <use xlink:href="#DejaVuSans-Bold-47" x="1501.318359"/>
    <use xlink:href="#DejaVuSans-Bold-69" x="1583.398438"/>
    <use xlink:href="#DejaVuSans-Bold-29" x="1617.675781"/>
   </g>
  </g>
  <g id="text_43">
   <!-- -763.4375 -->
   <g transform="translate(120.770625 53.10375) scale(0.04 -0.04)">
    <use xlink:href="#DejaVuSans-2d"/>
    <use xlink:href="#DejaVuSans-37" x="36.083984"/>
    <use xlink:href="#DejaVuSans-36" x="99.707031"/>
    <use xlink:href="#DejaVuSans-33" x="163.330078"/>
    <use xlink:href="#DejaVuSans-2e" x="226.953125"/>
    <use xlink:href="#DejaVuSans-34" x="258.740234"/>
    <use xlink:href="#DejaVuSans-33" x="322.363281"/>
    <use xlink:href="#DejaVuSans-37" x="385.986328"/>
    <use xlink:href="#DejaVuSans-35" x="449.609375"/>
   </g>
  </g>
  <g id="text_44">
   <!-- 3.144 -->
   <g transform="translate(174.03875 53.10375) scale(0.04 -0.04)">
    <use xlink:href="#DejaVuSans-33"/>
    <use xlink:href="#DejaVuSans-2e" x="63.623047"/>
    <use xlink:href="#DejaVuSans-31" x="95.410156"/>
    <use xlink:href="#DejaVuSans-34" x="159.033203"/>
    <use xlink:href="#DejaVuSans-34" x="222.65625"/>
   </g>
  </g>
  <g id="text_45">
   <!-- -242.791 -->
   <g transform="translate(200.625625 53.10375) scale(0.04 -0.04)">
    <use xlink:href="#DejaVuSans-2d"/>
    <use xlink:href="#DejaVuSans-32" x="36.083984"/>
    <use xlink:href="#DejaVuSans-34" x="99.707031"/>
    <use xlink:href="#DejaVuSans-32" x="163.330078"/>
    <use xlink:href="#DejaVuSans-2e" x="226.953125"/>
    <use xlink:href="#DejaVuSans-37" x="258.740234"/>
    <use xlink:href="#DejaVuSans-39" x="322.363281"/>
    <use xlink:href="#DejaVuSans-31" x="385.986328"/>
   </g>
  </g>
  <g id="text_46">
   <!-- 0.0 -->
   <g transform="translate(239.78875 53.10375) scale(0.04 -0.04)">
    <use xlink:href="#DejaVuSans-30"/>
    <use xlink:href="#DejaVuSans-2e" x="63.623047"/>
    <use xlink:href="#DejaVuSans-30" x="95.410156"/>
   </g>
  </g>
  <g id="text_47">
   <!-- -769.927 -->
   <g transform="translate(259.305625 53.10375) scale(0.04 -0.04)">
    <use xlink:href="#DejaVuSans-2d"/>
    <use xlink:href="#DejaVuSans-37" x="36.083984"/>
    <use xlink:href="#DejaVuSans-36" x="99.707031"/>
    <use xlink:href="#DejaVuSans-39" x="163.330078"/>
    <use xlink:href="#DejaVuSans-2e" x="226.953125"/>
    <use xlink:href="#DejaVuSans-39" x="258.740234"/>
    <use xlink:href="#DejaVuSans-32" x="322.363281"/>
    <use xlink:href="#DejaVuSans-37" x="385.986328"/>
   </g>
  </g>
  <g id="text_48">
   <!-- -756.948 -->
   <g transform="translate(290.445625 53.10375) scale(0.04 -0.04)">
    <use xlink:href="#DejaVuSans-2d"/>
    <use xlink:href="#DejaVuSans-37" x="36.083984"/>
    <use xlink:href="#DejaVuSans-35" x="99.707031"/>
    <use xlink:href="#DejaVuSans-36" x="163.330078"/>
    <use xlink:href="#DejaVuSans-2e" x="226.953125"/>
    <use xlink:href="#DejaVuSans-39" x="258.740234"/>
    <use xlink:href="#DejaVuSans-34" x="322.363281"/>
    <use xlink:href="#DejaVuSans-38" x="385.986328"/>
   </g>
  </g>
  <g id="text_49">
   <!-- CPU (1500m)*Network (FashionMNISTCNN) -->
   <g transform="translate(8.9175 61.10375) scale(0.04 -0.04)">
    <use xlink:href="#DejaVuSans-Bold-43"/>
    <use xlink:href="#DejaVuSans-Bold-50" x="73.388672"/>
    <use xlink:href="#DejaVuSans-Bold-55" x="146.679688"/>
    <use xlink:href="#DejaVuSans-Bold-20" x="227.880859"/>
    <use xlink:href="#DejaVuSans-Bold-28" x="262.695312"/>
    <use xlink:href="#DejaVuSans-Bold-31" x="308.398438"/>
    <use xlink:href="#DejaVuSans-Bold-35" x="377.978516"/>
    <use xlink:href="#DejaVuSans-Bold-30" x="447.558594"/>
    <use xlink:href="#DejaVuSans-Bold-30" x="517.138672"/>
    <use xlink:href="#DejaVuSans-Bold-6d" x="586.71875"/>
    <use xlink:href="#DejaVuSans-Bold-29" x="690.917969"/>
    <use xlink:href="#DejaVuSans-Bold-2a" x="736.621094"/>
    <use xlink:href="#DejaVuSans-Bold-4e" x="788.916016"/>
    <use xlink:href="#DejaVuSans-Bold-65" x="872.607422"/>
    <use xlink:href="#DejaVuSans-Bold-74" x="940.429688"/>
    <use xlink:href="#DejaVuSans-Bold-77" x="988.232422"/>
    <use xlink:href="#DejaVuSans-Bold-6f" x="1080.615234"/>
    <use xlink:href="#DejaVuSans-Bold-72" x="1149.316406"/>
    <use xlink:href="#DejaVuSans-Bold-6b" x="1198.632812"/>
    <use xlink:href="#DejaVuSans-Bold-20" x="1265.136719"/>
    <use xlink:href="#DejaVuSans-Bold-28" x="1299.951172"/>
    <use xlink:href="#DejaVuSans-Bold-46" x="1345.654297"/>
    <use xlink:href="#DejaVuSans-Bold-61" x="1408.089844"/>
    <use xlink:href="#DejaVuSans-Bold-73" x="1475.570312"/>
    <use xlink:href="#DejaVuSans-Bold-68" x="1535.091797"/>
    <use xlink:href="#DejaVuSans-Bold-69" x="1606.283203"/>
    <use xlink:href="#DejaVuSans-Bold-6f" x="1640.560547"/>
    <use xlink:href="#DejaVuSans-Bold-6e" x="1709.261719"/>
    <use xlink:href="#DejaVuSans-Bold-4d" x="1780.453125"/>
    <use xlink:href="#DejaVuSans-Bold-4e" x="1879.964844"/>
    <use xlink:href="#DejaVuSans-Bold-49" x="1963.65625"/>
    <use xlink:href="#DejaVuSans-Bold-53" x="2000.863281"/>
    <use xlink:href="#DejaVuSans-Bold-54" x="2072.884766"/>
    <use xlink:href="#DejaVuSans-Bold-43" x="2141.097656"/>
    <use xlink:href="#DejaVuSans-Bold-4e" x="2214.486328"/>
    <use xlink:href="#DejaVuSans-Bold-4e" x="2298.177734"/>
    <use xlink:href="#DejaVuSans-Bold-29" x="2381.869141"/>
   </g>
  </g>
  <g id="text_50">
   <!-- 763.1250 -->
   <g transform="translate(122.21375 61.10375) scale(0.04 -0.04)">
    <use xlink:href="#DejaVuSans-37"/>
    <use xlink:href="#DejaVuSans-36" x="63.623047"/>
    <use xlink:href="#DejaVuSans-33" x="127.246094"/>
    <use xlink:href="#DejaVuSans-2e" x="190.869141"/>
    <use xlink:href="#DejaVuSans-31" x="222.65625"/>
    <use xlink:href="#DejaVuSans-32" x="286.279297"/>
    <use xlink:href="#DejaVuSans-35" x="349.902344"/>
    <use xlink:href="#DejaVuSans-30" x="413.525391"/>
   </g>
  </g>
  <g id="text_51">
   <!-- 3.144 -->
   <g transform="translate(174.03875 61.10375) scale(0.04 -0.04)">
    <use xlink:href="#DejaVuSans-33"/>
    <use xlink:href="#DejaVuSans-2e" x="63.623047"/>
    <use xlink:href="#DejaVuSans-31" x="95.410156"/>
    <use xlink:href="#DejaVuSans-34" x="159.033203"/>
    <use xlink:href="#DejaVuSans-34" x="222.65625"/>
   </g>
  </g>
  <g id="text_52">
   <!-- 242.692 -->
   <g transform="translate(202.06875 61.10375) scale(0.04 -0.04)">
    <use xlink:href="#DejaVuSans-32"/>
    <use xlink:href="#DejaVuSans-34" x="63.623047"/>
    <use xlink:href="#DejaVuSans-32" x="127.246094"/>
    <use xlink:href="#DejaVuSans-2e" x="190.869141"/>
    <use xlink:href="#DejaVuSans-36" x="222.65625"/>
    <use xlink:href="#DejaVuSans-39" x="286.279297"/>
    <use xlink:href="#DejaVuSans-32" x="349.902344"/>
   </g>
  </g>
  <g id="text_53">
   <!-- 0.0 -->
   <g transform="translate(239.78875 61.10375) scale(0.04 -0.04)">
    <use xlink:href="#DejaVuSans-30"/>
    <use xlink:href="#DejaVuSans-2e" x="63.623047"/>
    <use xlink:href="#DejaVuSans-30" x="95.410156"/>
   </g>
  </g>
  <g id="text_54">
   <!-- 756.635 -->
   <g transform="translate(260.74875 61.10375) scale(0.04 -0.04)">
    <use xlink:href="#DejaVuSans-37"/>
    <use xlink:href="#DejaVuSans-35" x="63.623047"/>
    <use xlink:href="#DejaVuSans-36" x="127.246094"/>
    <use xlink:href="#DejaVuSans-2e" x="190.869141"/>
    <use xlink:href="#DejaVuSans-36" x="222.65625"/>
    <use xlink:href="#DejaVuSans-33" x="286.279297"/>
    <use xlink:href="#DejaVuSans-35" x="349.902344"/>
   </g>
  </g>
  <g id="text_55">
   <!-- 769.615 -->
   <g transform="translate(291.88875 61.10375) scale(0.04 -0.04)">
    <use xlink:href="#DejaVuSans-37"/>
    <use xlink:href="#DejaVuSans-36" x="63.623047"/>
    <use xlink:href="#DejaVuSans-39" x="127.246094"/>
    <use xlink:href="#DejaVuSans-2e" x="190.869141"/>
    <use xlink:href="#DejaVuSans-36" x="222.65625"/>
    <use xlink:href="#DejaVuSans-31" x="286.279297"/>
    <use xlink:href="#DejaVuSans-35" x="349.902344"/>
   </g>
  </g>
  <g id="text_56">
   <!-- Memory (1.5Gi)*Network (FashionMNISTCNN) -->
   <g transform="translate(3.40375 69.088125) scale(0.04 -0.04)">
    <use xlink:href="#DejaVuSans-Bold-4d"/>
    <use xlink:href="#DejaVuSans-Bold-65" x="99.511719"/>
    <use xlink:href="#DejaVuSans-Bold-6d" x="167.333984"/>
    <use xlink:href="#DejaVuSans-Bold-6f" x="271.533203"/>
    <use xlink:href="#DejaVuSans-Bold-72" x="340.234375"/>
    <use xlink:href="#DejaVuSans-Bold-79" x="389.550781"/>
    <use xlink:href="#DejaVuSans-Bold-20" x="454.736328"/>
    <use xlink:href="#DejaVuSans-Bold-28" x="489.550781"/>
    <use xlink:href="#DejaVuSans-Bold-31" x="535.253906"/>
    <use xlink:href="#DejaVuSans-Bold-2e" x="604.833984"/>
    <use xlink:href="#DejaVuSans-Bold-35" x="642.822266"/>
    <use xlink:href="#DejaVuSans-Bold-47" x="712.402344"/>
    <use xlink:href="#DejaVuSans-Bold-69" x="794.482422"/>
    <use xlink:href="#DejaVuSans-Bold-29" x="828.759766"/>
    <use xlink:href="#DejaVuSans-Bold-2a" x="874.462891"/>
    <use xlink:href="#DejaVuSans-Bold-4e" x="926.757812"/>
    <use xlink:href="#DejaVuSans-Bold-65" x="1010.449219"/>
    <use xlink:href="#DejaVuSans-Bold-74" x="1078.271484"/>
    <use xlink:href="#DejaVuSans-Bold-77" x="1126.074219"/>
    <use xlink:href="#DejaVuSans-Bold-6f" x="1218.457031"/>
    <use xlink:href="#DejaVuSans-Bold-72" x="1287.158203"/>
    <use xlink:href="#DejaVuSans-Bold-6b" x="1336.474609"/>
    <use xlink:href="#DejaVuSans-Bold-20" x="1402.978516"/>
    <use xlink:href="#DejaVuSans-Bold-28" x="1437.792969"/>
    <use xlink:href="#DejaVuSans-Bold-46" x="1483.496094"/>
    <use xlink:href="#DejaVuSans-Bold-61" x="1545.931641"/>
    <use xlink:href="#DejaVuSans-Bold-73" x="1613.412109"/>
    <use xlink:href="#DejaVuSans-Bold-68" x="1672.933594"/>
    <use xlink:href="#DejaVuSans-Bold-69" x="1744.125"/>
    <use xlink:href="#DejaVuSans-Bold-6f" x="1778.402344"/>
    <use xlink:href="#DejaVuSans-Bold-6e" x="1847.103516"/>
    <use xlink:href="#DejaVuSans-Bold-4d" x="1918.294922"/>
    <use xlink:href="#DejaVuSans-Bold-4e" x="2017.806641"/>
    <use xlink:href="#DejaVuSans-Bold-49" x="2101.498047"/>
    <use xlink:href="#DejaVuSans-Bold-53" x="2138.705078"/>
    <use xlink:href="#DejaVuSans-Bold-54" x="2210.726562"/>
    <use xlink:href="#DejaVuSans-Bold-43" x="2278.939453"/>
    <use xlink:href="#DejaVuSans-Bold-4e" x="2352.328125"/>
    <use xlink:href="#DejaVuSans-Bold-4e" x="2436.019531"/>
    <use xlink:href="#DejaVuSans-Bold-29" x="2519.710938"/>
   </g>
  </g>
  <g id="text_57">
   <!-- -389.0000 -->
   <g transform="translate(120.770625 69.10375) scale(0.04 -0.04)">
    <use xlink:href="#DejaVuSans-2d"/>
    <use xlink:href="#DejaVuSans-33" x="36.083984"/>
    <use xlink:href="#DejaVuSans-38" x="99.707031"/>
    <use xlink:href="#DejaVuSans-39" x="163.330078"/>
    <use xlink:href="#DejaVuSans-2e" x="226.953125"/>
    <use xlink:href="#DejaVuSans-30" x="258.740234"/>
    <use xlink:href="#DejaVuSans-30" x="322.363281"/>
    <use xlink:href="#DejaVuSans-30" x="385.986328"/>
    <use xlink:href="#DejaVuSans-30" x="449.609375"/>
   </g>
  </g>
  <g id="text_58">
   <!-- 3.144 -->
   <g transform="translate(174.03875 69.10375) scale(0.04 -0.04)">
    <use xlink:href="#DejaVuSans-33"/>
    <use xlink:href="#DejaVuSans-2e" x="63.623047"/>
    <use xlink:href="#DejaVuSans-31" x="95.410156"/>
    <use xlink:href="#DejaVuSans-34" x="159.033203"/>
    <use xlink:href="#DejaVuSans-34" x="222.65625"/>
   </g>
  </g>
  <g id="text_59">
   <!-- -123.711 -->
   <g transform="translate(200.625625 69.10375) scale(0.04 -0.04)">
    <use xlink:href="#DejaVuSans-2d"/>
    <use xlink:href="#DejaVuSans-31" x="36.083984"/>
    <use xlink:href="#DejaVuSans-32" x="99.707031"/>
    <use xlink:href="#DejaVuSans-33" x="163.330078"/>
    <use xlink:href="#DejaVuSans-2e" x="226.953125"/>
    <use xlink:href="#DejaVuSans-37" x="258.740234"/>
    <use xlink:href="#DejaVuSans-31" x="322.363281"/>
    <use xlink:href="#DejaVuSans-31" x="385.986328"/>
   </g>
  </g>
  <g id="text_60">
   <!-- 0.0 -->
   <g transform="translate(239.78875 69.10375) scale(0.04 -0.04)">
    <use xlink:href="#DejaVuSans-30"/>
    <use xlink:href="#DejaVuSans-2e" x="63.623047"/>
    <use xlink:href="#DejaVuSans-30" x="95.410156"/>
   </g>
  </g>
  <g id="text_61">
   <!-- -395.490 -->
   <g transform="translate(259.305625 69.10375) scale(0.04 -0.04)">
    <use xlink:href="#DejaVuSans-2d"/>
    <use xlink:href="#DejaVuSans-33" x="36.083984"/>
    <use xlink:href="#DejaVuSans-39" x="99.707031"/>
    <use xlink:href="#DejaVuSans-35" x="163.330078"/>
    <use xlink:href="#DejaVuSans-2e" x="226.953125"/>
    <use xlink:href="#DejaVuSans-34" x="258.740234"/>
    <use xlink:href="#DejaVuSans-39" x="322.363281"/>
    <use xlink:href="#DejaVuSans-30" x="385.986328"/>
   </g>
  </g>
  <g id="text_62">
   <!-- -382.510 -->
   <g transform="translate(290.445625 69.10375) scale(0.04 -0.04)">
    <use xlink:href="#DejaVuSans-2d"/>
    <use xlink:href="#DejaVuSans-33" x="36.083984"/>
    <use xlink:href="#DejaVuSans-38" x="99.707031"/>
    <use xlink:href="#DejaVuSans-32" x="163.330078"/>
    <use xlink:href="#DejaVuSans-2e" x="226.953125"/>
    <use xlink:href="#DejaVuSans-35" x="258.740234"/>
    <use xlink:href="#DejaVuSans-31" x="322.363281"/>
    <use xlink:href="#DejaVuSans-30" x="385.986328"/>
   </g>
  </g>
 </g>
</svg>
