<?xml version="1.0" encoding="utf-8" standalone="no"?>
<!DOCTYPE svg PUBLIC "-//W3C//DTD SVG 1.1//EN"
  "http://www.w3.org/Graphics/SVG/1.1/DTD/svg11.dtd">
<svg xmlns:xlink="http://www.w3.org/1999/xlink" width="267.12pt" height="280pt" viewBox="0 0 267.12 280" xmlns="http://www.w3.org/2000/svg" version="1.1">
 <metadata>
  <rdf:RDF xmlns:dc="http://purl.org/dc/elements/1.1/" xmlns:cc="http://creativecommons.org/ns#" xmlns:rdf="http://www.w3.org/1999/02/22-rdf-syntax-ns#">
   <cc:Work>
    <dc:type rdf:resource="http://purl.org/dc/dcmitype/StillImage"/>
    <dc:date>2023-12-18T19:30:49.557859</dc:date>
    <dc:format>image/svg+xml</dc:format>
    <dc:creator>
     <cc:Agent>
      <dc:title>Matplotlib v3.8.2, https://matplotlib.org/</dc:title>
     </cc:Agent>
    </dc:creator>
   </cc:Work>
  </rdf:RDF>
 </metadata>
 <defs>
  <style type="text/css">*{stroke-linejoin: round; stroke-linecap: butt}</style>
 </defs>
 <g id="figure_1">
  <g id="patch_1">
   <path d="M 0 280 
L 267.12 280 
L 267.12 0 
L 0 0 
z
" style="fill: #ffffff"/>
  </g>
  <g id="patch_2">
   <path d="M 7.2 28 
L 44.73 28 
L 44.73 0 
L 7.2 0 
z
" style="fill: #ffffff; stroke: #ffffff; stroke-linejoin: miter"/>
  </g>
  <g id="patch_3">
   <path d="M 44.73 28 
L 69.57 28 
L 69.57 0 
L 44.73 0 
z
" style="fill: #ffffff; stroke: #ffffff; stroke-linejoin: miter"/>
  </g>
  <g id="patch_4">
   <path d="M 69.57 28 
L 94.41 28 
L 94.41 0 
L 69.57 0 
z
" style="fill: #ffffff; stroke: #ffffff; stroke-linejoin: miter"/>
  </g>
  <g id="patch_5">
   <path d="M 94.41 28 
L 119.25 28 
L 119.25 0 
L 94.41 0 
z
" style="fill: #ffffff; stroke: #ffffff; stroke-linejoin: miter"/>
  </g>
  <g id="patch_6">
   <path d="M 119.25 28 
L 144.09 28 
L 144.09 0 
L 119.25 0 
z
" style="fill: #ffffff; stroke: #ffffff; stroke-linejoin: miter"/>
  </g>
  <g id="patch_7">
   <path d="M 144.09 28 
L 176.4 28 
L 176.4 0 
L 144.09 0 
z
" style="fill: #ffffff; stroke: #ffffff; stroke-linejoin: miter"/>
  </g>
  <g id="patch_8">
   <path d="M 176.4 28 
L 208.44 28 
L 208.44 0 
L 176.4 0 
z
" style="fill: #ffffff; stroke: #ffffff; stroke-linejoin: miter"/>
  </g>
  <g id="patch_9">
   <path d="M 208.44 28 
L 240.21 28 
L 240.21 0 
L 208.44 0 
z
" style="fill: #ffffff; stroke: #ffffff; stroke-linejoin: miter"/>
  </g>
  <g id="patch_10">
   <path d="M 240.21 28 
L 259.92 28 
L 259.92 0 
L 240.21 0 
z
" style="fill: #ffffff; stroke: #ffffff; stroke-linejoin: miter"/>
  </g>
  <g id="patch_11">
   <path d="M 7.2 56 
L 44.73 56 
L 44.73 28 
L 7.2 28 
z
" style="fill: #ffffff; stroke: #ffffff; stroke-linejoin: miter"/>
  </g>
  <g id="patch_12">
   <path d="M 44.73 56 
L 69.57 56 
L 69.57 28 
L 44.73 28 
z
" style="fill: #ffffff; stroke: #ffffff; stroke-linejoin: miter"/>
  </g>
  <g id="patch_13">
   <path d="M 69.57 56 
L 94.41 56 
L 94.41 28 
L 69.57 28 
z
" style="fill: #ffffff; stroke: #ffffff; stroke-linejoin: miter"/>
  </g>
  <g id="patch_14">
   <path d="M 94.41 56 
L 119.25 56 
L 119.25 28 
L 94.41 28 
z
" style="fill: #ffffff; stroke: #ffffff; stroke-linejoin: miter"/>
  </g>
  <g id="patch_15">
   <path d="M 119.25 56 
L 144.09 56 
L 144.09 28 
L 119.25 28 
z
" style="fill: #ffffff; stroke: #ffffff; stroke-linejoin: miter"/>
  </g>
  <g id="patch_16">
   <path d="M 144.09 56 
L 176.4 56 
L 176.4 28 
L 144.09 28 
z
" style="fill: #ffffff; stroke: #ffffff; stroke-linejoin: miter"/>
  </g>
  <g id="patch_17">
   <path d="M 176.4 56 
L 208.44 56 
L 208.44 28 
L 176.4 28 
z
" style="fill: #ffffff; stroke: #ffffff; stroke-linejoin: miter"/>
  </g>
  <g id="patch_18">
   <path d="M 208.44 56 
L 240.21 56 
L 240.21 28 
L 208.44 28 
z
" style="fill: #ffffff; stroke: #ffffff; stroke-linejoin: miter"/>
  </g>
  <g id="patch_19">
   <path d="M 240.21 56 
L 259.92 56 
L 259.92 28 
L 240.21 28 
z
" style="fill: #ffffff; stroke: #ffffff; stroke-linejoin: miter"/>
  </g>
  <g id="patch_20">
   <path d="M 7.2 84 
L 259.92 84 
L 259.92 56 
L 7.2 56 
z
" style="fill: #f5f5f5; stroke: #f5f5f5; stroke-linejoin: miter"/>
  </g>
  <g id="patch_21">
   <path d="M 7.2 84 
L 44.73 84 
L 44.73 56 
L 7.2 56 
z
" style="fill: #ffffff; stroke: #ffffff; stroke-linejoin: miter"/>
  </g>
  <g id="patch_22">
   <path d="M 44.73 84 
L 69.57 84 
L 69.57 56 
L 44.73 56 
z
" style="fill: #ffffff; stroke: #ffffff; stroke-linejoin: miter"/>
  </g>
  <g id="patch_23">
   <path d="M 69.57 84 
L 94.41 84 
L 94.41 56 
L 69.57 56 
z
" style="fill: #ffffff; stroke: #ffffff; stroke-linejoin: miter"/>
  </g>
  <g id="patch_24">
   <path d="M 94.41 84 
L 119.25 84 
L 119.25 56 
L 94.41 56 
z
" style="fill: #ffffff; stroke: #ffffff; stroke-linejoin: miter"/>
  </g>
  <g id="patch_25">
   <path d="M 119.25 84 
L 144.09 84 
L 144.09 56 
L 119.25 56 
z
" style="fill: #ffffff; stroke: #ffffff; stroke-linejoin: miter"/>
  </g>
  <g id="patch_26">
   <path d="M 144.09 84 
L 176.4 84 
L 176.4 56 
L 144.09 56 
z
" style="fill: #ffffff; stroke: #ffffff; stroke-linejoin: miter"/>
  </g>
  <g id="patch_27">
   <path d="M 176.4 84 
L 208.44 84 
L 208.44 56 
L 176.4 56 
z
" style="fill: #ffffff; stroke: #ffffff; stroke-linejoin: miter"/>
  </g>
  <g id="patch_28">
   <path d="M 208.44 84 
L 240.21 84 
L 240.21 56 
L 208.44 56 
z
" style="fill: #ffffff; stroke: #ffffff; stroke-linejoin: miter"/>
  </g>
  <g id="patch_29">
   <path d="M 240.21 84 
L 259.92 84 
L 259.92 56 
L 240.21 56 
z
" style="fill: #ffffff; stroke: #ffffff; stroke-linejoin: miter"/>
  </g>
  <g id="patch_30">
   <path d="M 7.2 112 
L 44.73 112 
L 44.73 84 
L 7.2 84 
z
" style="fill: #ffffff; stroke: #ffffff; stroke-linejoin: miter"/>
  </g>
  <g id="patch_31">
   <path d="M 44.73 112 
L 69.57 112 
L 69.57 84 
L 44.73 84 
z
" style="fill: #ffffff; stroke: #ffffff; stroke-linejoin: miter"/>
  </g>
  <g id="patch_32">
   <path d="M 69.57 112 
L 94.41 112 
L 94.41 84 
L 69.57 84 
z
" style="fill: #ffffff; stroke: #ffffff; stroke-linejoin: miter"/>
  </g>
  <g id="patch_33">
   <path d="M 94.41 112 
L 119.25 112 
L 119.25 84 
L 94.41 84 
z
" style="fill: #ffffff; stroke: #ffffff; stroke-linejoin: miter"/>
  </g>
  <g id="patch_34">
   <path d="M 119.25 112 
L 144.09 112 
L 144.09 84 
L 119.25 84 
z
" style="fill: #ffffff; stroke: #ffffff; stroke-linejoin: miter"/>
  </g>
  <g id="patch_35">
   <path d="M 144.09 112 
L 176.4 112 
L 176.4 84 
L 144.09 84 
z
" style="fill: #ffffff; stroke: #ffffff; stroke-linejoin: miter"/>
  </g>
  <g id="patch_36">
   <path d="M 176.4 112 
L 208.44 112 
L 208.44 84 
L 176.4 84 
z
" style="fill: #ffffff; stroke: #ffffff; stroke-linejoin: miter"/>
  </g>
  <g id="patch_37">
   <path d="M 208.44 112 
L 240.21 112 
L 240.21 84 
L 208.44 84 
z
" style="fill: #ffffff; stroke: #ffffff; stroke-linejoin: miter"/>
  </g>
  <g id="patch_38">
   <path d="M 240.21 112 
L 259.92 112 
L 259.92 84 
L 240.21 84 
z
" style="fill: #ffffff; stroke: #ffffff; stroke-linejoin: miter"/>
  </g>
  <g id="patch_39">
   <path d="M 7.2 140 
L 259.92 140 
L 259.92 112 
L 7.2 112 
z
" style="fill: #f5f5f5; stroke: #f5f5f5; stroke-linejoin: miter"/>
  </g>
  <g id="patch_40">
   <path d="M 7.2 140 
L 44.73 140 
L 44.73 112 
L 7.2 112 
z
" style="fill: #ffffff; stroke: #ffffff; stroke-linejoin: miter"/>
  </g>
  <g id="patch_41">
   <path d="M 44.73 140 
L 69.57 140 
L 69.57 112 
L 44.73 112 
z
" style="fill: #ffffff; stroke: #ffffff; stroke-linejoin: miter"/>
  </g>
  <g id="patch_42">
   <path d="M 69.57 140 
L 94.41 140 
L 94.41 112 
L 69.57 112 
z
" style="fill: #ffffff; stroke: #ffffff; stroke-linejoin: miter"/>
  </g>
  <g id="patch_43">
   <path d="M 94.41 140 
L 119.25 140 
L 119.25 112 
L 94.41 112 
z
" style="fill: #ffffff; stroke: #ffffff; stroke-linejoin: miter"/>
  </g>
  <g id="patch_44">
   <path d="M 119.25 140 
L 144.09 140 
L 144.09 112 
L 119.25 112 
z
" style="fill: #ffffff; stroke: #ffffff; stroke-linejoin: miter"/>
  </g>
  <g id="patch_45">
   <path d="M 144.09 140 
L 176.4 140 
L 176.4 112 
L 144.09 112 
z
" style="fill: #ffffff; stroke: #ffffff; stroke-linejoin: miter"/>
  </g>
  <g id="patch_46">
   <path d="M 176.4 140 
L 208.44 140 
L 208.44 112 
L 176.4 112 
z
" style="fill: #ffffff; stroke: #ffffff; stroke-linejoin: miter"/>
  </g>
  <g id="patch_47">
   <path d="M 208.44 140 
L 240.21 140 
L 240.21 112 
L 208.44 112 
z
" style="fill: #ffffff; stroke: #ffffff; stroke-linejoin: miter"/>
  </g>
  <g id="patch_48">
   <path d="M 240.21 140 
L 259.92 140 
L 259.92 112 
L 240.21 112 
z
" style="fill: #ffffff; stroke: #ffffff; stroke-linejoin: miter"/>
  </g>
  <g id="patch_49">
   <path d="M 7.2 168 
L 44.73 168 
L 44.73 140 
L 7.2 140 
z
" style="fill: #ffffff; stroke: #ffffff; stroke-linejoin: miter"/>
  </g>
  <g id="patch_50">
   <path d="M 44.73 168 
L 69.57 168 
L 69.57 140 
L 44.73 140 
z
" style="fill: #ffffff; stroke: #ffffff; stroke-linejoin: miter"/>
  </g>
  <g id="patch_51">
   <path d="M 69.57 168 
L 94.41 168 
L 94.41 140 
L 69.57 140 
z
" style="fill: #ffffff; stroke: #ffffff; stroke-linejoin: miter"/>
  </g>
  <g id="patch_52">
   <path d="M 94.41 168 
L 119.25 168 
L 119.25 140 
L 94.41 140 
z
" style="fill: #ffffff; stroke: #ffffff; stroke-linejoin: miter"/>
  </g>
  <g id="patch_53">
   <path d="M 119.25 168 
L 144.09 168 
L 144.09 140 
L 119.25 140 
z
" style="fill: #ffffff; stroke: #ffffff; stroke-linejoin: miter"/>
  </g>
  <g id="patch_54">
   <path d="M 144.09 168 
L 176.4 168 
L 176.4 140 
L 144.09 140 
z
" style="fill: #ffffff; stroke: #ffffff; stroke-linejoin: miter"/>
  </g>
  <g id="patch_55">
   <path d="M 176.4 168 
L 208.44 168 
L 208.44 140 
L 176.4 140 
z
" style="fill: #ffffff; stroke: #ffffff; stroke-linejoin: miter"/>
  </g>
  <g id="patch_56">
   <path d="M 208.44 168 
L 240.21 168 
L 240.21 140 
L 208.44 140 
z
" style="fill: #ffffff; stroke: #ffffff; stroke-linejoin: miter"/>
  </g>
  <g id="patch_57">
   <path d="M 240.21 168 
L 259.92 168 
L 259.92 140 
L 240.21 140 
z
" style="fill: #ffffff; stroke: #ffffff; stroke-linejoin: miter"/>
  </g>
  <g id="patch_58">
   <path d="M 7.2 196 
L 259.92 196 
L 259.92 168 
L 7.2 168 
z
" style="fill: #f5f5f5; stroke: #f5f5f5; stroke-linejoin: miter"/>
  </g>
  <g id="patch_59">
   <path d="M 7.2 196 
L 44.73 196 
L 44.73 168 
L 7.2 168 
z
" style="fill: #ffffff; stroke: #ffffff; stroke-linejoin: miter"/>
  </g>
  <g id="patch_60">
   <path d="M 44.73 196 
L 69.57 196 
L 69.57 168 
L 44.73 168 
z
" style="fill: #ffffff; stroke: #ffffff; stroke-linejoin: miter"/>
  </g>
  <g id="patch_61">
   <path d="M 69.57 196 
L 94.41 196 
L 94.41 168 
L 69.57 168 
z
" style="fill: #ffffff; stroke: #ffffff; stroke-linejoin: miter"/>
  </g>
  <g id="patch_62">
   <path d="M 94.41 196 
L 119.25 196 
L 119.25 168 
L 94.41 168 
z
" style="fill: #ffffff; stroke: #ffffff; stroke-linejoin: miter"/>
  </g>
  <g id="patch_63">
   <path d="M 119.25 196 
L 144.09 196 
L 144.09 168 
L 119.25 168 
z
" style="fill: #ffffff; stroke: #ffffff; stroke-linejoin: miter"/>
  </g>
  <g id="patch_64">
   <path d="M 144.09 196 
L 176.4 196 
L 176.4 168 
L 144.09 168 
z
" style="fill: #ffffff; stroke: #ffffff; stroke-linejoin: miter"/>
  </g>
  <g id="patch_65">
   <path d="M 176.4 196 
L 208.44 196 
L 208.44 168 
L 176.4 168 
z
" style="fill: #ffffff; stroke: #ffffff; stroke-linejoin: miter"/>
  </g>
  <g id="patch_66">
   <path d="M 208.44 196 
L 240.21 196 
L 240.21 168 
L 208.44 168 
z
" style="fill: #ffffff; stroke: #ffffff; stroke-linejoin: miter"/>
  </g>
  <g id="patch_67">
   <path d="M 240.21 196 
L 259.92 196 
L 259.92 168 
L 240.21 168 
z
" style="fill: #ffffff; stroke: #ffffff; stroke-linejoin: miter"/>
  </g>
  <g id="patch_68">
   <path d="M 7.2 224 
L 44.73 224 
L 44.73 196 
L 7.2 196 
z
" style="fill: #ffffff; stroke: #ffffff; stroke-linejoin: miter"/>
  </g>
  <g id="patch_69">
   <path d="M 44.73 224 
L 69.57 224 
L 69.57 196 
L 44.73 196 
z
" style="fill: #ffffff; stroke: #ffffff; stroke-linejoin: miter"/>
  </g>
  <g id="patch_70">
   <path d="M 69.57 224 
L 94.41 224 
L 94.41 196 
L 69.57 196 
z
" style="fill: #ffffff; stroke: #ffffff; stroke-linejoin: miter"/>
  </g>
  <g id="patch_71">
   <path d="M 94.41 224 
L 119.25 224 
L 119.25 196 
L 94.41 196 
z
" style="fill: #ffffff; stroke: #ffffff; stroke-linejoin: miter"/>
  </g>
  <g id="patch_72">
   <path d="M 119.25 224 
L 144.09 224 
L 144.09 196 
L 119.25 196 
z
" style="fill: #ffffff; stroke: #ffffff; stroke-linejoin: miter"/>
  </g>
  <g id="patch_73">
   <path d="M 144.09 224 
L 176.4 224 
L 176.4 196 
L 144.09 196 
z
" style="fill: #ffffff; stroke: #ffffff; stroke-linejoin: miter"/>
  </g>
  <g id="patch_74">
   <path d="M 176.4 224 
L 208.44 224 
L 208.44 196 
L 176.4 196 
z
" style="fill: #ffffff; stroke: #ffffff; stroke-linejoin: miter"/>
  </g>
  <g id="patch_75">
   <path d="M 208.44 224 
L 240.21 224 
L 240.21 196 
L 208.44 196 
z
" style="fill: #ffffff; stroke: #ffffff; stroke-linejoin: miter"/>
  </g>
  <g id="patch_76">
   <path d="M 240.21 224 
L 259.92 224 
L 259.92 196 
L 240.21 196 
z
" style="fill: #ffffff; stroke: #ffffff; stroke-linejoin: miter"/>
  </g>
  <g id="patch_77">
   <path d="M 7.2 252 
L 259.92 252 
L 259.92 224 
L 7.2 224 
z
" style="fill: #f5f5f5; stroke: #f5f5f5; stroke-linejoin: miter"/>
  </g>
  <g id="patch_78">
   <path d="M 7.2 252 
L 44.73 252 
L 44.73 224 
L 7.2 224 
z
" style="fill: #ffffff; stroke: #ffffff; stroke-linejoin: miter"/>
  </g>
  <g id="patch_79">
   <path d="M 44.73 252 
L 69.57 252 
L 69.57 224 
L 44.73 224 
z
" style="fill: #ffffff; stroke: #ffffff; stroke-linejoin: miter"/>
  </g>
  <g id="patch_80">
   <path d="M 69.57 252 
L 94.41 252 
L 94.41 224 
L 69.57 224 
z
" style="fill: #ffffff; stroke: #ffffff; stroke-linejoin: miter"/>
  </g>
  <g id="patch_81">
   <path d="M 94.41 252 
L 119.25 252 
L 119.25 224 
L 94.41 224 
z
" style="fill: #ffffff; stroke: #ffffff; stroke-linejoin: miter"/>
  </g>
  <g id="patch_82">
   <path d="M 119.25 252 
L 144.09 252 
L 144.09 224 
L 119.25 224 
z
" style="fill: #ffffff; stroke: #ffffff; stroke-linejoin: miter"/>
  </g>
  <g id="patch_83">
   <path d="M 144.09 252 
L 176.4 252 
L 176.4 224 
L 144.09 224 
z
" style="fill: #ffffff; stroke: #ffffff; stroke-linejoin: miter"/>
  </g>
  <g id="patch_84">
   <path d="M 176.4 252 
L 208.44 252 
L 208.44 224 
L 176.4 224 
z
" style="fill: #ffffff; stroke: #ffffff; stroke-linejoin: miter"/>
  </g>
  <g id="patch_85">
   <path d="M 208.44 252 
L 240.21 252 
L 240.21 224 
L 208.44 224 
z
" style="fill: #ffffff; stroke: #ffffff; stroke-linejoin: miter"/>
  </g>
  <g id="patch_86">
   <path d="M 240.21 252 
L 259.92 252 
L 259.92 224 
L 240.21 224 
z
" style="fill: #ffffff; stroke: #ffffff; stroke-linejoin: miter"/>
  </g>
  <g id="patch_87">
   <path d="M 7.2 280 
L 44.73 280 
L 44.73 252 
L 7.2 252 
z
" style="fill: #ffffff; stroke: #ffffff; stroke-linejoin: miter"/>
  </g>
  <g id="patch_88">
   <path d="M 44.73 280 
L 69.57 280 
L 69.57 252 
L 44.73 252 
z
" style="fill: #ffffff; stroke: #ffffff; stroke-linejoin: miter"/>
  </g>
  <g id="patch_89">
   <path d="M 69.57 280 
L 94.41 280 
L 94.41 252 
L 69.57 252 
z
" style="fill: #ffffff; stroke: #ffffff; stroke-linejoin: miter"/>
  </g>
  <g id="patch_90">
   <path d="M 94.41 280 
L 119.25 280 
L 119.25 252 
L 94.41 252 
z
" style="fill: #ffffff; stroke: #ffffff; stroke-linejoin: miter"/>
  </g>
  <g id="patch_91">
   <path d="M 119.25 280 
L 144.09 280 
L 144.09 252 
L 119.25 252 
z
" style="fill: #ffffff; stroke: #ffffff; stroke-linejoin: miter"/>
  </g>
  <g id="patch_92">
   <path d="M 144.09 280 
L 176.4 280 
L 176.4 252 
L 144.09 252 
z
" style="fill: #ffffff; stroke: #ffffff; stroke-linejoin: miter"/>
  </g>
  <g id="patch_93">
   <path d="M 176.4 280 
L 208.44 280 
L 208.44 252 
L 176.4 252 
z
" style="fill: #ffffff; stroke: #ffffff; stroke-linejoin: miter"/>
  </g>
  <g id="patch_94">
   <path d="M 208.44 280 
L 240.21 280 
L 240.21 252 
L 208.44 252 
z
" style="fill: #ffffff; stroke: #ffffff; stroke-linejoin: miter"/>
  </g>
  <g id="patch_95">
   <path d="M 240.21 280 
L 259.92 280 
L 259.92 252 
L 240.21 252 
z
" style="fill: #ffffff; stroke: #ffffff; stroke-linejoin: miter"/>
  </g>
  <g id="line2d_1">
   <path d="M 7.2 56 
L 259.92 56 
" style="fill: none; stroke: #000000; stroke-width: 1.5; stroke-linecap: square"/>
  </g>
  <g id="text_1">
   <!-- A -->
   <g transform="translate(53.695312 17.863125) scale(0.14 -0.14)">
    <defs>
     <path id="DejaVuSans-Bold-41" d="M 3419 850 
L 1538 850 
L 1241 0 
L 31 0 
L 1759 4666 
L 3194 4666 
L 4922 0 
L 3713 0 
L 3419 850 
z
M 1838 1716 
L 3116 1716 
L 2478 3572 
L 1838 1716 
z
" transform="scale(0.015625)"/>
    </defs>
    <use xlink:href="#DejaVuSans-Bold-41"/>
   </g>
  </g>
  <g id="text_2">
   <!-- B -->
   <g transform="translate(78.699375 17.863125) scale(0.14 -0.14)">
    <defs>
     <path id="DejaVuSans-Bold-42" d="M 2456 2859 
Q 2741 2859 2887 2984 
Q 3034 3109 3034 3353 
Q 3034 3594 2887 3720 
Q 2741 3847 2456 3847 
L 1791 3847 
L 1791 2859 
L 2456 2859 
z
M 2497 819 
Q 2859 819 3042 972 
Q 3225 1125 3225 1434 
Q 3225 1738 3044 1889 
Q 2863 2041 2497 2041 
L 1791 2041 
L 1791 819 
L 2497 819 
z
M 3616 2497 
Q 4003 2384 4215 2081 
Q 4428 1778 4428 1338 
Q 4428 663 3972 331 
Q 3516 0 2584 0 
L 588 0 
L 588 4666 
L 2394 4666 
Q 3366 4666 3802 4372 
Q 4238 4078 4238 3431 
Q 4238 3091 4078 2852 
Q 3919 2613 3616 2497 
z
" transform="scale(0.015625)"/>
    </defs>
    <use xlink:href="#DejaVuSans-Bold-42"/>
   </g>
  </g>
  <g id="text_3">
   <!-- C -->
   <g transform="translate(103.935313 17.863125) scale(0.14 -0.14)">
    <defs>
     <path id="DejaVuSans-Bold-43" d="M 4288 256 
Q 3956 84 3597 -3 
Q 3238 -91 2847 -91 
Q 1681 -91 1000 561 
Q 319 1213 319 2328 
Q 319 3447 1000 4098 
Q 1681 4750 2847 4750 
Q 3238 4750 3597 4662 
Q 3956 4575 4288 4403 
L 4288 3438 
Q 3953 3666 3628 3772 
Q 3303 3878 2944 3878 
Q 2300 3878 1931 3465 
Q 1563 3053 1563 2328 
Q 1563 1606 1931 1193 
Q 2300 781 2944 781 
Q 3303 781 3628 887 
Q 3953 994 4288 1222 
L 4288 256 
z
" transform="scale(0.015625)"/>
    </defs>
    <use xlink:href="#DejaVuSans-Bold-43"/>
   </g>
  </g>
  <g id="text_4">
   <!-- D -->
   <g transform="translate(127.427813 17.863125) scale(0.14 -0.14)">
    <defs>
     <path id="DejaVuSans-Bold-44" d="M 1791 3756 
L 1791 909 
L 2222 909 
Q 2959 909 3348 1275 
Q 3738 1641 3738 2338 
Q 3738 3031 3350 3393 
Q 2963 3756 2222 3756 
L 1791 3756 
z
M 588 4666 
L 1856 4666 
Q 2919 4666 3439 4514 
Q 3959 4363 4331 4000 
Q 4659 3684 4818 3271 
Q 4978 2859 4978 2338 
Q 4978 1809 4818 1395 
Q 4659 981 4331 666 
Q 3956 303 3431 151 
Q 2906 0 1856 0 
L 588 0 
L 588 4666 
z
" transform="scale(0.015625)"/>
    </defs>
    <use xlink:href="#DejaVuSans-Bold-44"/>
   </g>
  </g>
  <g id="text_5">
   <!-- AB -->
   <g transform="translate(149.854688 17.863125) scale(0.14 -0.14)">
    <use xlink:href="#DejaVuSans-Bold-41"/>
    <use xlink:href="#DejaVuSans-Bold-42" x="77.392578"/>
   </g>
  </g>
  <g id="text_6">
   <!-- AC -->
   <g transform="translate(182.290625 17.863125) scale(0.14 -0.14)">
    <use xlink:href="#DejaVuSans-Bold-41"/>
    <use xlink:href="#DejaVuSans-Bold-43" x="77.392578"/>
   </g>
  </g>
  <g id="text_7">
   <!-- BC -->
   <g transform="translate(214.224687 17.863125) scale(0.14 -0.14)">
    <use xlink:href="#DejaVuSans-Bold-42"/>
    <use xlink:href="#DejaVuSans-Bold-43" x="76.220703"/>
   </g>
  </g>
  <g id="text_8">
   <!-- I -->
   <g transform="translate(249.671562 17.863125) scale(0.14 -0.14)">
    <defs>
     <path id="DejaVuSans-Bold-49" d="M 588 4666 
L 1791 4666 
L 1791 0 
L 588 0 
L 588 4666 
z
" transform="scale(0.015625)"/>
    </defs>
    <use xlink:href="#DejaVuSans-Bold-49"/>
   </g>
  </g>
  <g id="text_9">
   <!-- Run -->
   <g transform="translate(8.9775 45.863125) scale(0.14 -0.14)">
    <defs>
     <path id="DejaVuSans-Bold-52" d="M 2297 2597 
Q 2675 2597 2839 2737 
Q 3003 2878 3003 3200 
Q 3003 3519 2839 3656 
Q 2675 3794 2297 3794 
L 1791 3794 
L 1791 2597 
L 2297 2597 
z
M 1791 1766 
L 1791 0 
L 588 0 
L 588 4666 
L 2425 4666 
Q 3347 4666 3776 4356 
Q 4206 4047 4206 3378 
Q 4206 2916 3982 2619 
Q 3759 2322 3309 2181 
Q 3556 2125 3751 1926 
Q 3947 1728 4147 1325 
L 4800 0 
L 3519 0 
L 2950 1159 
Q 2778 1509 2601 1637 
Q 2425 1766 2131 1766 
L 1791 1766 
z
" transform="scale(0.015625)"/>
     <path id="DejaVuSans-Bold-75" d="M 500 1363 
L 500 3500 
L 1625 3500 
L 1625 3150 
Q 1625 2866 1622 2436 
Q 1619 2006 1619 1863 
Q 1619 1441 1641 1255 
Q 1663 1069 1716 984 
Q 1784 875 1895 815 
Q 2006 756 2150 756 
Q 2500 756 2700 1025 
Q 2900 1294 2900 1772 
L 2900 3500 
L 4019 3500 
L 4019 0 
L 2900 0 
L 2900 506 
Q 2647 200 2364 54 
Q 2081 -91 1741 -91 
Q 1134 -91 817 281 
Q 500 653 500 1363 
z
" transform="scale(0.015625)"/>
     <path id="DejaVuSans-Bold-6e" d="M 4056 2131 
L 4056 0 
L 2931 0 
L 2931 347 
L 2931 1631 
Q 2931 2084 2911 2256 
Q 2891 2428 2841 2509 
Q 2775 2619 2662 2680 
Q 2550 2741 2406 2741 
Q 2056 2741 1856 2470 
Q 1656 2200 1656 1722 
L 1656 0 
L 538 0 
L 538 3500 
L 1656 3500 
L 1656 2988 
Q 1909 3294 2193 3439 
Q 2478 3584 2822 3584 
Q 3428 3584 3742 3212 
Q 4056 2841 4056 2131 
z
" transform="scale(0.015625)"/>
    </defs>
    <use xlink:href="#DejaVuSans-Bold-52"/>
    <use xlink:href="#DejaVuSans-Bold-75" x="77.001953"/>
    <use xlink:href="#DejaVuSans-Bold-6e" x="148.193359"/>
   </g>
  </g>
  <g id="text_10">
   <!-- 1 -->
   <g transform="translate(29.949063 73.863125) scale(0.14 -0.14)">
    <defs>
     <path id="DejaVuSans-Bold-31" d="M 750 831 
L 1813 831 
L 1813 3847 
L 722 3622 
L 722 4441 
L 1806 4666 
L 2950 4666 
L 2950 831 
L 4013 831 
L 4013 0 
L 750 0 
L 750 831 
z
" transform="scale(0.015625)"/>
    </defs>
    <use xlink:href="#DejaVuSans-Bold-31"/>
   </g>
  </g>
  <g id="text_11">
   <!-- -1 -->
   <g transform="translate(50.571562 73.863125) scale(0.14 -0.14)">
    <defs>
     <path id="DejaVuSans-2d" d="M 313 2009 
L 1997 2009 
L 1997 1497 
L 313 1497 
L 313 2009 
z
" transform="scale(0.015625)"/>
     <path id="DejaVuSans-31" d="M 794 531 
L 1825 531 
L 1825 4091 
L 703 3866 
L 703 4441 
L 1819 4666 
L 2450 4666 
L 2450 531 
L 3481 531 
L 3481 0 
L 794 0 
L 794 531 
z
" transform="scale(0.015625)"/>
    </defs>
    <use xlink:href="#DejaVuSans-2d"/>
    <use xlink:href="#DejaVuSans-31" x="36.083984"/>
   </g>
  </g>
  <g id="text_12">
   <!-- -1 -->
   <g transform="translate(75.411563 73.863125) scale(0.14 -0.14)">
    <use xlink:href="#DejaVuSans-2d"/>
    <use xlink:href="#DejaVuSans-31" x="36.083984"/>
   </g>
  </g>
  <g id="text_13">
   <!-- -1 -->
   <g transform="translate(100.251563 73.863125) scale(0.14 -0.14)">
    <use xlink:href="#DejaVuSans-2d"/>
    <use xlink:href="#DejaVuSans-31" x="36.083984"/>
   </g>
  </g>
  <g id="text_14">
   <!-- -1 -->
   <g transform="translate(125.091563 73.863125) scale(0.14 -0.14)">
    <use xlink:href="#DejaVuSans-2d"/>
    <use xlink:href="#DejaVuSans-31" x="36.083984"/>
   </g>
  </g>
  <g id="text_15">
   <!-- 1 -->
   <g transform="translate(162.4525 73.863125) scale(0.14 -0.14)">
    <use xlink:href="#DejaVuSans-31"/>
   </g>
  </g>
  <g id="text_16">
   <!-- 1 -->
   <g transform="translate(194.4925 73.863125) scale(0.14 -0.14)">
    <use xlink:href="#DejaVuSans-31"/>
   </g>
  </g>
  <g id="text_17">
   <!-- 1 -->
   <g transform="translate(226.2625 73.863125) scale(0.14 -0.14)">
    <use xlink:href="#DejaVuSans-31"/>
   </g>
  </g>
  <g id="text_18">
   <!-- 1 -->
   <g transform="translate(245.9725 73.863125) scale(0.14 -0.14)">
    <use xlink:href="#DejaVuSans-31"/>
   </g>
  </g>
  <g id="text_19">
   <!-- 2 -->
   <g transform="translate(29.949063 101.863125) scale(0.14 -0.14)">
    <defs>
     <path id="DejaVuSans-Bold-32" d="M 1844 884 
L 3897 884 
L 3897 0 
L 506 0 
L 506 884 
L 2209 2388 
Q 2438 2594 2547 2791 
Q 2656 2988 2656 3200 
Q 2656 3528 2436 3728 
Q 2216 3928 1850 3928 
Q 1569 3928 1234 3808 
Q 900 3688 519 3450 
L 519 4475 
Q 925 4609 1322 4679 
Q 1719 4750 2100 4750 
Q 2938 4750 3402 4381 
Q 3866 4013 3866 3353 
Q 3866 2972 3669 2642 
Q 3472 2313 2841 1759 
L 1844 884 
z
" transform="scale(0.015625)"/>
    </defs>
    <use xlink:href="#DejaVuSans-Bold-32"/>
   </g>
  </g>
  <g id="text_20">
   <!-- 1 -->
   <g transform="translate(55.6225 101.863125) scale(0.14 -0.14)">
    <use xlink:href="#DejaVuSans-31"/>
   </g>
  </g>
  <g id="text_21">
   <!-- -1 -->
   <g transform="translate(75.411563 101.863125) scale(0.14 -0.14)">
    <use xlink:href="#DejaVuSans-2d"/>
    <use xlink:href="#DejaVuSans-31" x="36.083984"/>
   </g>
  </g>
  <g id="text_22">
   <!-- -1 -->
   <g transform="translate(100.251563 101.863125) scale(0.14 -0.14)">
    <use xlink:href="#DejaVuSans-2d"/>
    <use xlink:href="#DejaVuSans-31" x="36.083984"/>
   </g>
  </g>
  <g id="text_23">
   <!-- 1 -->
   <g transform="translate(130.1425 101.863125) scale(0.14 -0.14)">
    <use xlink:href="#DejaVuSans-31"/>
   </g>
  </g>
  <g id="text_24">
   <!-- -1 -->
   <g transform="translate(157.401563 101.863125) scale(0.14 -0.14)">
    <use xlink:href="#DejaVuSans-2d"/>
    <use xlink:href="#DejaVuSans-31" x="36.083984"/>
   </g>
  </g>
  <g id="text_25">
   <!-- -1 -->
   <g transform="translate(189.441563 101.863125) scale(0.14 -0.14)">
    <use xlink:href="#DejaVuSans-2d"/>
    <use xlink:href="#DejaVuSans-31" x="36.083984"/>
   </g>
  </g>
  <g id="text_26">
   <!-- 1 -->
   <g transform="translate(226.2625 101.863125) scale(0.14 -0.14)">
    <use xlink:href="#DejaVuSans-31"/>
   </g>
  </g>
  <g id="text_27">
   <!-- 1 -->
   <g transform="translate(245.9725 101.863125) scale(0.14 -0.14)">
    <use xlink:href="#DejaVuSans-31"/>
   </g>
  </g>
  <g id="text_28">
   <!-- 3 -->
   <g transform="translate(29.949063 129.863125) scale(0.14 -0.14)">
    <defs>
     <path id="DejaVuSans-Bold-33" d="M 2981 2516 
Q 3453 2394 3698 2092 
Q 3944 1791 3944 1325 
Q 3944 631 3412 270 
Q 2881 -91 1863 -91 
Q 1503 -91 1142 -33 
Q 781 25 428 141 
L 428 1069 
Q 766 900 1098 814 
Q 1431 728 1753 728 
Q 2231 728 2486 893 
Q 2741 1059 2741 1369 
Q 2741 1688 2480 1852 
Q 2219 2016 1709 2016 
L 1228 2016 
L 1228 2791 
L 1734 2791 
Q 2188 2791 2409 2933 
Q 2631 3075 2631 3366 
Q 2631 3634 2415 3781 
Q 2200 3928 1806 3928 
Q 1516 3928 1219 3862 
Q 922 3797 628 3669 
L 628 4550 
Q 984 4650 1334 4700 
Q 1684 4750 2022 4750 
Q 2931 4750 3382 4451 
Q 3834 4153 3834 3553 
Q 3834 3144 3618 2883 
Q 3403 2622 2981 2516 
z
" transform="scale(0.015625)"/>
    </defs>
    <use xlink:href="#DejaVuSans-Bold-33"/>
   </g>
  </g>
  <g id="text_29">
   <!-- -1 -->
   <g transform="translate(50.571562 129.863125) scale(0.14 -0.14)">
    <use xlink:href="#DejaVuSans-2d"/>
    <use xlink:href="#DejaVuSans-31" x="36.083984"/>
   </g>
  </g>
  <g id="text_30">
   <!-- 1 -->
   <g transform="translate(80.4625 129.863125) scale(0.14 -0.14)">
    <use xlink:href="#DejaVuSans-31"/>
   </g>
  </g>
  <g id="text_31">
   <!-- -1 -->
   <g transform="translate(100.251563 129.863125) scale(0.14 -0.14)">
    <use xlink:href="#DejaVuSans-2d"/>
    <use xlink:href="#DejaVuSans-31" x="36.083984"/>
   </g>
  </g>
  <g id="text_32">
   <!-- 1 -->
   <g transform="translate(130.1425 129.863125) scale(0.14 -0.14)">
    <use xlink:href="#DejaVuSans-31"/>
   </g>
  </g>
  <g id="text_33">
   <!-- -1 -->
   <g transform="translate(157.401563 129.863125) scale(0.14 -0.14)">
    <use xlink:href="#DejaVuSans-2d"/>
    <use xlink:href="#DejaVuSans-31" x="36.083984"/>
   </g>
  </g>
  <g id="text_34">
   <!-- 1 -->
   <g transform="translate(194.4925 129.863125) scale(0.14 -0.14)">
    <use xlink:href="#DejaVuSans-31"/>
   </g>
  </g>
  <g id="text_35">
   <!-- -1 -->
   <g transform="translate(221.211562 129.863125) scale(0.14 -0.14)">
    <use xlink:href="#DejaVuSans-2d"/>
    <use xlink:href="#DejaVuSans-31" x="36.083984"/>
   </g>
  </g>
  <g id="text_36">
   <!-- 1 -->
   <g transform="translate(245.9725 129.863125) scale(0.14 -0.14)">
    <use xlink:href="#DejaVuSans-31"/>
   </g>
  </g>
  <g id="text_37">
   <!-- 4 -->
   <g transform="translate(29.949063 157.863125) scale(0.14 -0.14)">
    <defs>
     <path id="DejaVuSans-Bold-34" d="M 2356 3675 
L 1038 1722 
L 2356 1722 
L 2356 3675 
z
M 2156 4666 
L 3494 4666 
L 3494 1722 
L 4159 1722 
L 4159 850 
L 3494 850 
L 3494 0 
L 2356 0 
L 2356 850 
L 288 850 
L 288 1881 
L 2156 4666 
z
" transform="scale(0.015625)"/>
    </defs>
    <use xlink:href="#DejaVuSans-Bold-34"/>
   </g>
  </g>
  <g id="text_38">
   <!-- 1 -->
   <g transform="translate(55.6225 157.863125) scale(0.14 -0.14)">
    <use xlink:href="#DejaVuSans-31"/>
   </g>
  </g>
  <g id="text_39">
   <!-- 1 -->
   <g transform="translate(80.4625 157.863125) scale(0.14 -0.14)">
    <use xlink:href="#DejaVuSans-31"/>
   </g>
  </g>
  <g id="text_40">
   <!-- -1 -->
   <g transform="translate(100.251563 157.863125) scale(0.14 -0.14)">
    <use xlink:href="#DejaVuSans-2d"/>
    <use xlink:href="#DejaVuSans-31" x="36.083984"/>
   </g>
  </g>
  <g id="text_41">
   <!-- -1 -->
   <g transform="translate(125.091563 157.863125) scale(0.14 -0.14)">
    <use xlink:href="#DejaVuSans-2d"/>
    <use xlink:href="#DejaVuSans-31" x="36.083984"/>
   </g>
  </g>
  <g id="text_42">
   <!-- 1 -->
   <g transform="translate(162.4525 157.863125) scale(0.14 -0.14)">
    <use xlink:href="#DejaVuSans-31"/>
   </g>
  </g>
  <g id="text_43">
   <!-- -1 -->
   <g transform="translate(189.441563 157.863125) scale(0.14 -0.14)">
    <use xlink:href="#DejaVuSans-2d"/>
    <use xlink:href="#DejaVuSans-31" x="36.083984"/>
   </g>
  </g>
  <g id="text_44">
   <!-- -1 -->
   <g transform="translate(221.211562 157.863125) scale(0.14 -0.14)">
    <use xlink:href="#DejaVuSans-2d"/>
    <use xlink:href="#DejaVuSans-31" x="36.083984"/>
   </g>
  </g>
  <g id="text_45">
   <!-- 1 -->
   <g transform="translate(245.9725 157.863125) scale(0.14 -0.14)">
    <use xlink:href="#DejaVuSans-31"/>
   </g>
  </g>
  <g id="text_46">
   <!-- 5 -->
   <g transform="translate(29.949063 185.863125) scale(0.14 -0.14)">
    <defs>
     <path id="DejaVuSans-Bold-35" d="M 678 4666 
L 3669 4666 
L 3669 3781 
L 1638 3781 
L 1638 3059 
Q 1775 3097 1914 3117 
Q 2053 3138 2203 3138 
Q 3056 3138 3531 2711 
Q 4006 2284 4006 1522 
Q 4006 766 3489 337 
Q 2972 -91 2053 -91 
Q 1656 -91 1267 -14 
Q 878 63 494 219 
L 494 1166 
Q 875 947 1217 837 
Q 1559 728 1863 728 
Q 2300 728 2551 942 
Q 2803 1156 2803 1522 
Q 2803 1891 2551 2103 
Q 2300 2316 1863 2316 
Q 1603 2316 1309 2248 
Q 1016 2181 678 2041 
L 678 4666 
z
" transform="scale(0.015625)"/>
    </defs>
    <use xlink:href="#DejaVuSans-Bold-35"/>
   </g>
  </g>
  <g id="text_47">
   <!-- -1 -->
   <g transform="translate(50.571562 185.863125) scale(0.14 -0.14)">
    <use xlink:href="#DejaVuSans-2d"/>
    <use xlink:href="#DejaVuSans-31" x="36.083984"/>
   </g>
  </g>
  <g id="text_48">
   <!-- -1 -->
   <g transform="translate(75.411563 185.863125) scale(0.14 -0.14)">
    <use xlink:href="#DejaVuSans-2d"/>
    <use xlink:href="#DejaVuSans-31" x="36.083984"/>
   </g>
  </g>
  <g id="text_49">
   <!-- 1 -->
   <g transform="translate(105.3025 185.863125) scale(0.14 -0.14)">
    <use xlink:href="#DejaVuSans-31"/>
   </g>
  </g>
  <g id="text_50">
   <!-- 1 -->
   <g transform="translate(130.1425 185.863125) scale(0.14 -0.14)">
    <use xlink:href="#DejaVuSans-31"/>
   </g>
  </g>
  <g id="text_51">
   <!-- 1 -->
   <g transform="translate(162.4525 185.863125) scale(0.14 -0.14)">
    <use xlink:href="#DejaVuSans-31"/>
   </g>
  </g>
  <g id="text_52">
   <!-- -1 -->
   <g transform="translate(189.441563 185.863125) scale(0.14 -0.14)">
    <use xlink:href="#DejaVuSans-2d"/>
    <use xlink:href="#DejaVuSans-31" x="36.083984"/>
   </g>
  </g>
  <g id="text_53">
   <!-- -1 -->
   <g transform="translate(221.211562 185.863125) scale(0.14 -0.14)">
    <use xlink:href="#DejaVuSans-2d"/>
    <use xlink:href="#DejaVuSans-31" x="36.083984"/>
   </g>
  </g>
  <g id="text_54">
   <!-- 1 -->
   <g transform="translate(245.9725 185.863125) scale(0.14 -0.14)">
    <use xlink:href="#DejaVuSans-31"/>
   </g>
  </g>
  <g id="text_55">
   <!-- 6 -->
   <g transform="translate(29.949063 213.863125) scale(0.14 -0.14)">
    <defs>
     <path id="DejaVuSans-Bold-36" d="M 2316 2303 
Q 2000 2303 1842 2098 
Q 1684 1894 1684 1484 
Q 1684 1075 1842 870 
Q 2000 666 2316 666 
Q 2634 666 2792 870 
Q 2950 1075 2950 1484 
Q 2950 1894 2792 2098 
Q 2634 2303 2316 2303 
z
M 3803 4544 
L 3803 3681 
Q 3506 3822 3243 3889 
Q 2981 3956 2731 3956 
Q 2194 3956 1894 3657 
Q 1594 3359 1544 2772 
Q 1750 2925 1990 3001 
Q 2231 3078 2516 3078 
Q 3231 3078 3670 2659 
Q 4109 2241 4109 1563 
Q 4109 813 3618 361 
Q 3128 -91 2303 -91 
Q 1394 -91 895 523 
Q 397 1138 397 2266 
Q 397 3422 980 4083 
Q 1563 4744 2578 4744 
Q 2900 4744 3203 4694 
Q 3506 4644 3803 4544 
z
" transform="scale(0.015625)"/>
    </defs>
    <use xlink:href="#DejaVuSans-Bold-36"/>
   </g>
  </g>
  <g id="text_56">
   <!-- 1 -->
   <g transform="translate(55.6225 213.863125) scale(0.14 -0.14)">
    <use xlink:href="#DejaVuSans-31"/>
   </g>
  </g>
  <g id="text_57">
   <!-- -1 -->
   <g transform="translate(75.411563 213.863125) scale(0.14 -0.14)">
    <use xlink:href="#DejaVuSans-2d"/>
    <use xlink:href="#DejaVuSans-31" x="36.083984"/>
   </g>
  </g>
  <g id="text_58">
   <!-- 1 -->
   <g transform="translate(105.3025 213.863125) scale(0.14 -0.14)">
    <use xlink:href="#DejaVuSans-31"/>
   </g>
  </g>
  <g id="text_59">
   <!-- -1 -->
   <g transform="translate(125.091563 213.863125) scale(0.14 -0.14)">
    <use xlink:href="#DejaVuSans-2d"/>
    <use xlink:href="#DejaVuSans-31" x="36.083984"/>
   </g>
  </g>
  <g id="text_60">
   <!-- -1 -->
   <g transform="translate(157.401563 213.863125) scale(0.14 -0.14)">
    <use xlink:href="#DejaVuSans-2d"/>
    <use xlink:href="#DejaVuSans-31" x="36.083984"/>
   </g>
  </g>
  <g id="text_61">
   <!-- 1 -->
   <g transform="translate(194.4925 213.863125) scale(0.14 -0.14)">
    <use xlink:href="#DejaVuSans-31"/>
   </g>
  </g>
  <g id="text_62">
   <!-- -1 -->
   <g transform="translate(221.211562 213.863125) scale(0.14 -0.14)">
    <use xlink:href="#DejaVuSans-2d"/>
    <use xlink:href="#DejaVuSans-31" x="36.083984"/>
   </g>
  </g>
  <g id="text_63">
   <!-- 1 -->
   <g transform="translate(245.9725 213.863125) scale(0.14 -0.14)">
    <use xlink:href="#DejaVuSans-31"/>
   </g>
  </g>
  <g id="text_64">
   <!-- 7 -->
   <g transform="translate(29.949063 241.863125) scale(0.14 -0.14)">
    <defs>
     <path id="DejaVuSans-Bold-37" d="M 428 4666 
L 3944 4666 
L 3944 3988 
L 2125 0 
L 953 0 
L 2675 3781 
L 428 3781 
L 428 4666 
z
" transform="scale(0.015625)"/>
    </defs>
    <use xlink:href="#DejaVuSans-Bold-37"/>
   </g>
  </g>
  <g id="text_65">
   <!-- -1 -->
   <g transform="translate(50.571562 241.863125) scale(0.14 -0.14)">
    <use xlink:href="#DejaVuSans-2d"/>
    <use xlink:href="#DejaVuSans-31" x="36.083984"/>
   </g>
  </g>
  <g id="text_66">
   <!-- 1 -->
   <g transform="translate(80.4625 241.863125) scale(0.14 -0.14)">
    <use xlink:href="#DejaVuSans-31"/>
   </g>
  </g>
  <g id="text_67">
   <!-- 1 -->
   <g transform="translate(105.3025 241.863125) scale(0.14 -0.14)">
    <use xlink:href="#DejaVuSans-31"/>
   </g>
  </g>
  <g id="text_68">
   <!-- -1 -->
   <g transform="translate(125.091563 241.863125) scale(0.14 -0.14)">
    <use xlink:href="#DejaVuSans-2d"/>
    <use xlink:href="#DejaVuSans-31" x="36.083984"/>
   </g>
  </g>
  <g id="text_69">
   <!-- -1 -->
   <g transform="translate(157.401563 241.863125) scale(0.14 -0.14)">
    <use xlink:href="#DejaVuSans-2d"/>
    <use xlink:href="#DejaVuSans-31" x="36.083984"/>
   </g>
  </g>
  <g id="text_70">
   <!-- -1 -->
   <g transform="translate(189.441563 241.863125) scale(0.14 -0.14)">
    <use xlink:href="#DejaVuSans-2d"/>
    <use xlink:href="#DejaVuSans-31" x="36.083984"/>
   </g>
  </g>
  <g id="text_71">
   <!-- 1 -->
   <g transform="translate(226.2625 241.863125) scale(0.14 -0.14)">
    <use xlink:href="#DejaVuSans-31"/>
   </g>
  </g>
  <g id="text_72">
   <!-- 1 -->
   <g transform="translate(245.9725 241.863125) scale(0.14 -0.14)">
    <use xlink:href="#DejaVuSans-31"/>
   </g>
  </g>
  <g id="text_73">
   <!-- 8 -->
   <g transform="translate(29.949063 269.863125) scale(0.14 -0.14)">
    <defs>
     <path id="DejaVuSans-Bold-38" d="M 2228 2088 
Q 1891 2088 1709 1903 
Q 1528 1719 1528 1375 
Q 1528 1031 1709 848 
Q 1891 666 2228 666 
Q 2563 666 2741 848 
Q 2919 1031 2919 1375 
Q 2919 1722 2741 1905 
Q 2563 2088 2228 2088 
z
M 1350 2484 
Q 925 2613 709 2878 
Q 494 3144 494 3541 
Q 494 4131 934 4440 
Q 1375 4750 2228 4750 
Q 3075 4750 3515 4442 
Q 3956 4134 3956 3541 
Q 3956 3144 3739 2878 
Q 3522 2613 3097 2484 
Q 3572 2353 3814 2058 
Q 4056 1763 4056 1313 
Q 4056 619 3595 264 
Q 3134 -91 2228 -91 
Q 1319 -91 855 264 
Q 391 619 391 1313 
Q 391 1763 633 2058 
Q 875 2353 1350 2484 
z
M 1631 3419 
Q 1631 3141 1786 2991 
Q 1941 2841 2228 2841 
Q 2509 2841 2662 2991 
Q 2816 3141 2816 3419 
Q 2816 3697 2662 3845 
Q 2509 3994 2228 3994 
Q 1941 3994 1786 3844 
Q 1631 3694 1631 3419 
z
" transform="scale(0.015625)"/>
    </defs>
    <use xlink:href="#DejaVuSans-Bold-38"/>
   </g>
  </g>
  <g id="text_74">
   <!-- 1 -->
   <g transform="translate(55.6225 269.863125) scale(0.14 -0.14)">
    <use xlink:href="#DejaVuSans-31"/>
   </g>
  </g>
  <g id="text_75">
   <!-- 1 -->
   <g transform="translate(80.4625 269.863125) scale(0.14 -0.14)">
    <use xlink:href="#DejaVuSans-31"/>
   </g>
  </g>
  <g id="text_76">
   <!-- 1 -->
   <g transform="translate(105.3025 269.863125) scale(0.14 -0.14)">
    <use xlink:href="#DejaVuSans-31"/>
   </g>
  </g>
  <g id="text_77">
   <!-- 1 -->
   <g transform="translate(130.1425 269.863125) scale(0.14 -0.14)">
    <use xlink:href="#DejaVuSans-31"/>
   </g>
  </g>
  <g id="text_78">
   <!-- 1 -->
   <g transform="translate(162.4525 269.863125) scale(0.14 -0.14)">
    <use xlink:href="#DejaVuSans-31"/>
   </g>
  </g>
  <g id="text_79">
   <!-- 1 -->
   <g transform="translate(194.4925 269.863125) scale(0.14 -0.14)">
    <use xlink:href="#DejaVuSans-31"/>
   </g>
  </g>
  <g id="text_80">
   <!-- 1 -->
   <g transform="translate(226.2625 269.863125) scale(0.14 -0.14)">
    <use xlink:href="#DejaVuSans-31"/>
   </g>
  </g>
  <g id="text_81">
   <!-- 1 -->
   <g transform="translate(245.9725 269.863125) scale(0.14 -0.14)">
    <use xlink:href="#DejaVuSans-31"/>
   </g>
  </g>
 </g>
</svg>
