<svg class="main-svg" xmlns="http://www.w3.org/2000/svg" xmlns:xlink="http://www.w3.org/1999/xlink" width="700" height="500" style="" viewBox="0 0 700 500"><rect x="0" y="0" width="700" height="500" style="fill: rgb(255, 255, 255); fill-opacity: 1;"/><defs id="defs-aaedaa"><g class="clips"><clipPath id="clipaaedaaxyplot" class="plotclip"><rect width="536" height="325"/></clipPath><clipPath class="axesclip" id="clipaaedaax"><rect x="80" y="0" width="536" height="500"/></clipPath><clipPath class="axesclip" id="clipaaedaay"><rect x="0" y="60" width="700" height="325"/></clipPath><clipPath class="axesclip" id="clipaaedaaxy"><rect x="80" y="60" width="536" height="325"/></clipPath></g><g class="gradients"/><g class="patterns"/></defs><g class="bglayer"><rect class="bg" x="80" y="60" width="536" height="325" style="fill: rgb(229, 236, 246); fill-opacity: 1; stroke-width: 0;"/></g><g class="layer-below"><g class="imagelayer"/><g class="shapelayer"/></g><g class="cartesianlayer"><g class="subplot xy"><g class="layer-subplot"><g class="shapelayer"/><g class="imagelayer"/></g><g class="minor-gridlayer"><g class="x"/><g class="y"/></g><g class="gridlayer"><g class="x"/><g class="y"><path class="ygrid crisp" transform="translate(0,331.01)" d="M80,0h536" style="stroke: rgb(255, 255, 255); stroke-opacity: 1; stroke-width: 1px;"/><path class="ygrid crisp" transform="translate(0,272.03999999999996)" d="M80,0h536" style="stroke: rgb(255, 255, 255); stroke-opacity: 1; stroke-width: 1px;"/><path class="ygrid crisp" transform="translate(0,213.06)" d="M80,0h536" style="stroke: rgb(255, 255, 255); stroke-opacity: 1; stroke-width: 1px;"/><path class="ygrid crisp" transform="translate(0,154.09)" d="M80,0h536" style="stroke: rgb(255, 255, 255); stroke-opacity: 1; stroke-width: 1px;"/><path class="ygrid crisp" transform="translate(0,95.12)" d="M80,0h536" style="stroke: rgb(255, 255, 255); stroke-opacity: 1; stroke-width: 1px;"/></g></g><g class="zerolinelayer"/><path class="xlines-below"/><path class="ylines-below"/><g class="overlines-below"/><g class="xaxislayer-below"/><g class="yaxislayer-below"/><g class="overaxes-below"/><g class="plot" transform="translate(80,60)" clip-path="url(#clipaaedaaxyplot)"><g class="boxlayer mlayer"><g class="trace boxes" style="opacity: 1;"><path class="box" d="M18.09,163.68H39.98M18.09,249.78H39.98V91.73H18.09ZM29.03,249.78V287.52M29.03,91.73V61.07M23.56,287.52H34.5M23.56,61.07H34.5" style="vector-effect: none; stroke-width: 2px; stroke: rgb(99, 110, 250); stroke-opacity: 1; fill: rgb(99, 110, 250); fill-opacity: 0.5;"/><path class="box" d="M107.42,131.83H129.31M107.42,189.63H129.31V95.27H107.42ZM118.37,189.63V221.47M118.37,95.27V87.02M112.89,221.47H123.84M112.89,87.02H123.84" style="vector-effect: none; stroke-width: 2px; stroke: rgb(99, 110, 250); stroke-opacity: 1; fill: rgb(99, 110, 250); fill-opacity: 0.5;"/><path class="box" d="M196.76,134.19H218.64M196.76,189.63H218.64V91.73H196.76ZM207.7,189.63V221.47M207.7,91.73V61.07M202.23,221.47H213.17M202.23,61.07H213.17" style="vector-effect: none; stroke-width: 2px; stroke: rgb(99, 110, 250); stroke-opacity: 1; fill: rgb(99, 110, 250); fill-opacity: 0.5;"/><path class="box" d="M286.09,161.32H307.98M286.09,249.78H307.98V95.27H286.09ZM297.03,249.78V287.52M297.03,95.27V87.02M291.56,287.52H302.51M291.56,87.02H302.51" style="vector-effect: none; stroke-width: 2px; stroke: rgb(99, 110, 250); stroke-opacity: 1; fill: rgb(99, 110, 250); fill-opacity: 0.5;"/><path class="box" d="M375.42,95.27H397.31M375.42,117.68H397.31V77.58H375.42ZM386.37,117.68V124.76M386.37,77.58V61.07M380.9,124.76H391.84M380.9,61.07H391.84" style="vector-effect: none; stroke-width: 2px; stroke: rgb(99, 110, 250); stroke-opacity: 1; fill: rgb(99, 110, 250); fill-opacity: 0.5;"/><path class="box" d="M464.76,216.75H486.64M464.76,249.78H486.64V184.91H464.76ZM475.7,249.78V287.52M475.7,184.91V143.63M470.23,287.52H481.17M470.23,143.63H481.17" style="vector-effect: none; stroke-width: 2px; stroke: rgb(99, 110, 250); stroke-opacity: 1; fill: rgb(99, 110, 250); fill-opacity: 0.5;"/><g class="points"/><g class="points"/><g class="points"/><g class="points"/><g class="points"/><g class="points"/></g><g class="trace boxes" style="opacity: 1;"><path class="box" d="M49.36,141.27H71.24M49.36,197.88H71.24V83.48H49.36ZM60.3,197.88V223.83M60.3,83.48V16.25M54.83,223.83H65.77M54.83,16.25H65.77" style="vector-effect: none; stroke-width: 2px; stroke: rgb(239, 85, 59); stroke-opacity: 1; fill: rgb(239, 85, 59); fill-opacity: 0.5;"/><path class="box" d="M138.69,160.14H160.58M138.69,241.52H160.58V92.91H138.69ZM149.63,241.52V308.75M149.63,92.91V68.15M144.16,308.75H155.1M144.16,68.15H155.1" style="vector-effect: none; stroke-width: 2px; stroke: rgb(239, 85, 59); stroke-opacity: 1; fill: rgb(239, 85, 59); fill-opacity: 0.5;"/><path class="box" d="M228.02,137.73H249.91M228.02,197.88H249.91V92.91H228.02ZM238.97,197.88V223.83M238.97,92.91V68.15M233.49,223.83H244.44M233.49,68.15H244.44" style="vector-effect: none; stroke-width: 2px; stroke: rgb(239, 85, 59); stroke-opacity: 1; fill: rgb(239, 85, 59); fill-opacity: 0.5;"/><path class="box" d="M317.36,163.68H339.24M317.36,241.52H339.24V83.48H317.36ZM328.3,241.52V308.75M328.3,83.48V16.25M322.83,308.75H333.77M322.83,16.25H333.77" style="vector-effect: none; stroke-width: 2px; stroke: rgb(239, 85, 59); stroke-opacity: 1; fill: rgb(239, 85, 59); fill-opacity: 0.5;"/><path class="box" d="M406.69,85.84H428.58M406.69,115.32H428.58V71.68H406.69ZM417.63,115.32V131.83M417.63,71.68V16.25M412.16,131.83H423.11M412.16,16.25H423.11" style="vector-effect: none; stroke-width: 2px; stroke: rgb(239, 85, 59); stroke-opacity: 1; fill: rgb(239, 85, 59); fill-opacity: 0.5;"/><path class="box" d="M496.02,219.11H517.91M496.02,241.52H517.91V188.45H496.02ZM506.97,241.52V308.75M506.97,188.45V150.71M501.49,308.75H512.44M501.49,150.71H512.44" style="vector-effect: none; stroke-width: 2px; stroke: rgb(239, 85, 59); stroke-opacity: 1; fill: rgb(239, 85, 59); fill-opacity: 0.5;"/><g class="points"/><g class="points"/><g class="points"/><g class="points"/><g class="points"/><g class="points"/></g></g></g><g class="overplot"/><path class="xlines-above crisp" d="M0,0" style="fill: none;"/><path class="ylines-above crisp" d="M0,0" style="fill: none;"/><g class="overlines-above"/><g class="xaxislayer-above"><g class="xtick"><text text-anchor="start" x="0" y="398" transform="translate(124.67,0) rotate(30,0,392)" style="font-family: 'Open Sans', verdana, arial, sans-serif; font-size: 12px; fill: rgb(42, 63, 95); fill-opacity: 1; white-space: pre; opacity: 1;">750m</text></g><g class="xtick"><text text-anchor="start" x="0" y="398" transform="translate(214,0) rotate(30,0,392)" style="font-family: 'Open Sans', verdana, arial, sans-serif; font-size: 12px; fill: rgb(42, 63, 95); fill-opacity: 1; white-space: pre; opacity: 1;">1500m</text></g><g class="xtick"><text text-anchor="start" x="0" y="398" transform="translate(303.33000000000004,0) rotate(30,0,392)" style="font-family: 'Open Sans', verdana, arial, sans-serif; font-size: 12px; fill: rgb(42, 63, 95); fill-opacity: 1; white-space: pre; opacity: 1;">1.5Gi</text></g><g class="xtick"><text text-anchor="start" x="0" y="398" transform="translate(392.67,0) rotate(30,0,392)" style="font-family: 'Open Sans', verdana, arial, sans-serif; font-size: 12px; fill: rgb(42, 63, 95); fill-opacity: 1; white-space: pre; opacity: 1;">3Gi</text></g><g class="xtick"><text text-anchor="start" x="0" y="398" transform="translate(482,0) rotate(30,0,392)" style="font-family: 'Open Sans', verdana, arial, sans-serif; font-size: 12px; fill: rgb(42, 63, 95); fill-opacity: 1; white-space: pre; opacity: 1;">FashionMNISTCNN</text></g><g class="xtick"><text text-anchor="start" x="0" y="398" transform="translate(571.3299999999999,0) rotate(30,0,392)" style="font-family: 'Open Sans', verdana, arial, sans-serif; font-size: 12px; fill: rgb(42, 63, 95); fill-opacity: 1; white-space: pre; opacity: 1;">FashionMNISTResNet</text></g></g><g class="yaxislayer-above"><g class="ytick"><text text-anchor="end" x="79" y="4.199999999999999" transform="translate(0,331.01)" style="font-family: 'Open Sans', verdana, arial, sans-serif; font-size: 12px; fill: rgb(42, 63, 95); fill-opacity: 1; white-space: pre; opacity: 1;">87.5</text></g><g class="ytick"><text text-anchor="end" x="79" y="4.199999999999999" style="font-family: 'Open Sans', verdana, arial, sans-serif; font-size: 12px; fill: rgb(42, 63, 95); fill-opacity: 1; white-space: pre; opacity: 1;" transform="translate(0,272.03999999999996)">88</text></g><g class="ytick"><text text-anchor="end" x="79" y="4.199999999999999" style="font-family: 'Open Sans', verdana, arial, sans-serif; font-size: 12px; fill: rgb(42, 63, 95); fill-opacity: 1; white-space: pre; opacity: 1;" transform="translate(0,213.06)">88.5</text></g><g class="ytick"><text text-anchor="end" x="79" y="4.199999999999999" style="font-family: 'Open Sans', verdana, arial, sans-serif; font-size: 12px; fill: rgb(42, 63, 95); fill-opacity: 1; white-space: pre; opacity: 1;" transform="translate(0,154.09)">89</text></g><g class="ytick"><text text-anchor="end" x="79" y="4.199999999999999" style="font-family: 'Open Sans', verdana, arial, sans-serif; font-size: 12px; fill: rgb(42, 63, 95); fill-opacity: 1; white-space: pre; opacity: 1;" transform="translate(0,95.12)">89.5</text></g></g><g class="overaxes-above"/></g></g><g class="polarlayer"/><g class="smithlayer"/><g class="ternarylayer"/><g class="geolayer"/><g class="funnelarealayer"/><g class="pielayer"/><g class="iciclelayer"/><g class="treemaplayer"/><g class="sunburstlayer"/><g class="glimages"/><defs id="topdefs-aaedaa"><g class="clips"/><clipPath id="legendaaedaa"><rect width="61" height="67" x="0" y="0"/></clipPath></defs><g class="layer-above"><g class="imagelayer"/><g class="shapelayer"/></g><g class="infolayer"><g class="legend" pointer-events="all" transform="translate(626.72,60)"><rect class="bg" shape-rendering="crispEdges" width="61" height="67" x="0" y="0" style="stroke: rgb(68, 68, 68); stroke-opacity: 1; fill: rgb(255, 255, 255); fill-opacity: 1; stroke-width: 0px;"/><g class="scrollbox" transform="" clip-path="url(#legendaaedaa)"><text class="legendtitletext" text-anchor="start" x="2" y="18.2" style="font-family: 'Open Sans', verdana, arial, sans-serif; font-size: 14px; fill: rgb(42, 63, 95); fill-opacity: 1; white-space: pre;">Epochs</text><g class="groups" transform=""><g class="traces" transform="translate(0,32.7)" style="opacity: 1;"><text class="legendtext" text-anchor="start" x="40" y="4.680000000000001" style="font-family: 'Open Sans', verdana, arial, sans-serif; font-size: 12px; fill: rgb(42, 63, 95); fill-opacity: 1; white-space: pre;">5</text><g class="layers" style="opacity: 1;"><g class="legendfill"/><g class="legendlines"/><g class="legendsymbols"><g class="legendpoints"><path class="legendbox" d="M6,6H-6V-6H6Z" transform="translate(20,0)" style="stroke-width: 2px; fill: rgb(99, 110, 250); fill-opacity: 0.5; stroke: rgb(99, 110, 250); stroke-opacity: 1;"/></g></g></g><rect class="legendtoggle" x="0" y="-9.5" width="55.28125" height="19" style="fill: rgb(0, 0, 0); fill-opacity: 0;"/></g></g><g class="groups" transform=""><g class="traces" transform="translate(0,51.7)" style="opacity: 1;"><text class="legendtext" text-anchor="start" x="40" y="4.680000000000001" style="font-family: 'Open Sans', verdana, arial, sans-serif; font-size: 12px; fill: rgb(42, 63, 95); fill-opacity: 1; white-space: pre;">10</text><g class="layers" style="opacity: 1;"><g class="legendfill"/><g class="legendlines"/><g class="legendsymbols"><g class="legendpoints"><path class="legendbox" d="M6,6H-6V-6H6Z" transform="translate(20,0)" style="stroke-width: 2px; fill: rgb(239, 85, 59); fill-opacity: 0.5; stroke: rgb(239, 85, 59); stroke-opacity: 1;"/></g></g></g><rect class="legendtoggle" x="0" y="-9.5" width="55.28125" height="19" style="fill: rgb(0, 0, 0); fill-opacity: 0;"/></g></g></g><rect class="scrollbar" rx="20" ry="3" width="0" height="0" x="0" y="0" style="fill: rgb(128, 139, 164); fill-opacity: 1;"/></g><g class="g-gtitle"/><g class="g-xtitle"><text class="xtitle" x="348" y="487.0470703125" text-anchor="middle" style="font-family: 'Open Sans', verdana, arial, sans-serif; font-size: 14px; fill: rgb(42, 63, 95); opacity: 1; font-weight: normal; white-space: pre;">Factors</text></g><g class="g-ytitle"><text class="ytitle" transform="rotate(-90,27.981250000000003,222.5)" x="27.981250000000003" y="222.5" text-anchor="middle" style="font-family: 'Open Sans', verdana, arial, sans-serif; font-size: 14px; fill: rgb(42, 63, 95); opacity: 1; font-weight: normal; white-space: pre;">Accuracy</text></g></g></svg>